<?xml version="1.0" encoding="UTF-8"?>
<svg id="SvgjsSvg1085" xmlns="http://www.w3.org/2000/svg" xmlns:xlink="http://www.w3.org/1999/xlink" viewBox="0 0 360 360">
  <defs>
    <style>
      .cls-1 {
        fill: url(#linear-gradient-4);
      }

      .cls-1, .cls-2, .cls-3, .cls-4, .cls-5, .cls-6, .cls-7, .cls-8, .cls-9, .cls-10, .cls-11, .cls-12, .cls-13, .cls-14, .cls-15 {
        fill-rule: evenodd;
      }

      .cls-16, .cls-13 {
        fill: #f0f0f0;
      }

      .cls-17, .cls-2 {
        fill: #fff;
      }

      .cls-18 {
        fill: #565656;
      }

      .cls-3 {
        fill: #f7f7f7;
      }

      .cls-19 {
        clip-path: url(#clippath-2);
      }

      .cls-4 {
        fill: #adadad;
      }

      .cls-5 {
        fill: url(#linear-gradient-2);
      }

      .cls-6 {
        fill: url(#linear-gradient-6);
      }

      .cls-20 {
        clip-path: url(#clippath-1);
      }

      .cls-7 {
        fill: url(#linear-gradient-5);
      }

      .cls-8 {
        fill: #f6f6f6;
      }

      .cls-9 {
        fill: url(#linear-gradient-10);
      }

      .cls-10 {
        fill: url(#linear-gradient-11);
      }

      .cls-11 {
        fill: #cacaca;
      }

      .cls-21 {
        clip-path: url(#clippath);
      }

      .cls-22 {
        fill: none;
      }

      .cls-23 {
        clip-path: url(#clippath-3);
      }

      .cls-24 {
        fill: url(#linear-gradient-9);
      }

      .cls-12 {
        fill: #d5d5d5;
      }

      .cls-25 {
        fill: url(#linear-gradient-3);
      }

      .cls-26 {
        fill: url(#linear-gradient);
      }

      .cls-14 {
        fill: url(#linear-gradient-7);
      }

      .cls-15 {
        fill: url(#linear-gradient-8);
      }
    </style>
    <linearGradient id="linear-gradient" x1="5318.55" y1="-7702.06" x2="5342.58" y2="-7702.06" gradientTransform="translate(-65342.85 -4791.82) rotate(59.67) scale(7)" gradientUnits="userSpaceOnUse">
      <stop offset="0" stop-color="#eaeaea"/>
      <stop offset=".61" stop-color="#ddd"/>
      <stop offset=".82" stop-color="silver"/>
      <stop offset="1" stop-color="#a1a1a1"/>
    </linearGradient>
    <clipPath id="clippath">
      <path class="cls-22" d="M195.02,108.59c0-8.26-6.69-14.95-14.95-14.95H69.78c-8.26,0-14.95,6.7-14.95,14.95v155.79c0,8.26,6.69,14.95,14.95,14.95h110.29c8.26,0,14.95-6.7,14.95-14.95V108.59Z"/>
    </clipPath>
    <clipPath id="clippath-1">
      <circle class="cls-22" cx="95.51" cy="161.07" r="25.42" transform="translate(-74.2 240.24) rotate(-84.35)"/>
    </clipPath>
    <linearGradient id="linear-gradient-2" x1="5278.19" y1="-7612.47" x2="5302.22" y2="-7612.47" gradientTransform="translate(-6110.07 -12416.06) rotate(118.98) scale(1.51)" gradientUnits="userSpaceOnUse">
      <stop offset="0" stop-color="#d4d4d4"/>
      <stop offset="1" stop-color="#717171"/>
    </linearGradient>
    <linearGradient id="linear-gradient-3" x1="5269.44" y1="-7624.81" x2="5293.47" y2="-7624.81" gradientTransform="translate(-7465.55 -13829.36) rotate(116.87) scale(1.71)" gradientUnits="userSpaceOnUse">
      <stop offset="0" stop-color="#d4d4d4"/>
      <stop offset="1" stop-color="#717171"/>
    </linearGradient>
    <linearGradient id="linear-gradient-4" x1="5288.05" y1="-7811.67" x2="5312.08" y2="-7811.67" gradientTransform="translate(-16965.13 -77.05) rotate(56.57) scale(1.83)" gradientUnits="userSpaceOnUse">
      <stop offset="0" stop-color="#cacaca"/>
      <stop offset=".64" stop-color="#c1c1c1"/>
      <stop offset=".84" stop-color="#a6a6a6"/>
      <stop offset="1" stop-color="#888"/>
    </linearGradient>
    <linearGradient id="linear-gradient-5" x1="5326.05" y1="-7735.68" x2="5350.08" y2="-7735.68" gradientTransform="translate(-36136.2 -2497.15) rotate(59.66) scale(3.88)" gradientUnits="userSpaceOnUse">
      <stop offset="0" stop-color="#cacaca"/>
      <stop offset=".63" stop-color="silver"/>
      <stop offset=".83" stop-color="#a5a5a5"/>
      <stop offset="1" stop-color="#888"/>
    </linearGradient>
    <clipPath id="clippath-2">
      <path class="cls-22" d="M275.72,178.79c8.51,19.72-48.52,82.91-67.54,81.29-19.02-1.63-46.56-91.05-46.56-91.05l-8.01-10.5,21.14,2.68-1.47,2.87s29.81,51.9,37.91,55.79c4.03,1.93,14.53-29.83,36.82-42.47,24.31-13.76,22.84-9.89,27.71,1.39Z"/>
    </clipPath>
    <linearGradient id="linear-gradient-6" x1="5304.66" y1="-7774.62" x2="5328.69" y2="-7774.62" gradientTransform="translate(-18844.24 -1685.6) rotate(61.27) scale(2.04)" gradientUnits="userSpaceOnUse">
      <stop offset="0" stop-color="#565656"/>
      <stop offset=".54" stop-color="#4d4d4d"/>
      <stop offset="1" stop-color="#2b2b2b"/>
    </linearGradient>
    <linearGradient id="linear-gradient-7" x1="5336.45" y1="-7743.12" x2="5360.48" y2="-7743.12" gradientTransform="translate(-38212.71 465) rotate(55.01) scale(4.09)" gradientUnits="userSpaceOnUse">
      <stop offset="0" stop-color="#565656"/>
      <stop offset=".51" stop-color="#4b4b4b"/>
      <stop offset="1" stop-color="#2b2b2b"/>
    </linearGradient>
    <linearGradient id="linear-gradient-8" x1="5461.55" y1="-7702.32" x2="5485.57" y2="-7702.32" gradientTransform="translate(8685.56 16748.93) rotate(-62.2) scale(1.97)" gradientUnits="userSpaceOnUse">
      <stop offset="0" stop-color="#000"/>
      <stop offset="1" stop-color="#4d4d4d"/>
    </linearGradient>
    <linearGradient id="linear-gradient-9" x1="5332.9" y1="-7705.78" x2="5356.93" y2="-7705.78" gradientTransform="translate(-17239.13 -27078.3) rotate(112.78) scale(3.46)" gradientUnits="userSpaceOnUse">
      <stop offset="0" stop-color="#d4d4d4"/>
      <stop offset=".6" stop-color="#c8c8c8"/>
      <stop offset=".81" stop-color="#adadad"/>
      <stop offset="1" stop-color="#909090"/>
    </linearGradient>
    <linearGradient id="linear-gradient-10" x1="5330.8" y1="-7749.36" x2="5354.83" y2="-7749.36" gradientTransform="translate(-21795.07 -10494.46) rotate(81.44) scale(2.61)" gradientUnits="userSpaceOnUse">
      <stop offset="0" stop-color="#cacaca"/>
      <stop offset=".47" stop-color="#b8b8b8"/>
      <stop offset="1" stop-color="#888"/>
    </linearGradient>
    <clipPath id="clippath-3">
      <path class="cls-22" d="M311.94,171c21.4,1.88,52.61,77.24,39.45,98.05-13.17,20.81-96.25,22.96-118.44,26.81-16.86,14.73-23.75-3.59-21.33-3.62,10.74-.11,10.45-8.72,10.45-8.72,0,0,.18-.9-2.86-4.56,3.35-2.36,10.83,4.45,10.83,4.45,0,0,80.12-30.82,87.39-36.11,3.62-2.63-18.95-26.97-19.88-52.58-.31-8.78,2.15-24.8,14.39-23.72h0Z"/>
    </clipPath>
    <linearGradient id="linear-gradient-11" x1="5279.97" y1="-7739.46" x2="5304" y2="-7739.46" gradientTransform="translate(-15082.15 -19174.72) rotate(107.17) scale(2.64)" gradientUnits="userSpaceOnUse">
      <stop offset="0" stop-color="#565656"/>
      <stop offset=".49" stop-color="#4b4b4b"/>
      <stop offset="1" stop-color="#2b2b2b"/>
    </linearGradient>
  </defs>
  <g id="SvgjsG1087">
    <path class="cls-3" d="M178.64,56.06c80.56,67.94,165.12,41.9,174.6,120.09,10.07,83.11-16.87,33.09-81.76,84.95-94.7,75.68-236.89,49.28-242.16-85.73C25.82,85.42,114.64,2.09,178.64,56.06Z"/>
    <path class="cls-26" d="M7.74,238.27c.71-1.57,1.14-3.18,1.97-4.5,.94-1.29,2.53-2.29,4.18-1.7,7.36,2.38,14.75,2.33,18.73-3.75-.03,.09-.04,.19-.03,.28,0,.09,.11,.12,.2,.12,.09,.18,.43,.31,.61,.4,.93,.42,1.98,.46,2.99,.34,1.28-.21,2.32-1.06,3.43-1.68,.72-.43,1.48-.79,2.26-1.08,.02,.41-.03,.83-.13,1.23-.04-.01-.09,0-.12,.02-.89,1.22-2.75,1.6-4.31,2.49-1.33,.64-2.42,1.65-3.34,2.8-.88,1.03-1.6,2.18-2.13,3.42-1.25,2.7-1.58,5.69-1.73,8.63-.01,.59-.31,3.74,.68,3.23,.95-1.03,1.45-2.31,2.49-2.98,3.01-2.14,6.78-2.47,9.45-5.09,2.69-2.77,4.63-8.11,1.31-11.09-.49-.42-1.06-.75-1.67-.98-.11-.03-.18-.09-.29-.12,.15-.56,.22-1.13,.19-1.71,.63-.2,1.29-.29,1.95-.29,.98-.01,1.99,.14,2.95-.09,1.65-.36,2.95-1.74,3.41-3.37,.14-.52,.34-1.16,.33-1.78,.83,.65,1.72,1.26,2.74,1.58,1.46,.41,3.29,.23,3.86-1.45,.34-1.07,.08-2.19-.02-3.25-.1-.71,.12-1.76,.25-2.63,.07,.4,.22,.78,.44,1.12,.27,.44,.58,.86,.89,1.29-.15,2.31-.17,4.87,1.1,6.9-3.15-.48-3.86,4.58-8.26,2.11-.57-.24-2.12-1.41-2.32-.33-.05,.34,.1,.62,.21,.92,.29,.74,.7,1.44,1.2,2.07,1.52,1.81,4.13,3.15,6.49,2.52,.83-.21,1.61-.87,2.12-1.27,.61-.43,1.28-.77,2-.98,1.45-.48,3.01-.66,4.3-1.46,.3-.19,.57-.42,.81-.69,.21,1.19,1.02,2.33,2.78,3.4,2.38,1.23,4.74,1.9,6.64,3.87,.32,.28,.97,1.2,1.41,1.69,.54,.62,.93,.33,1.04-.4,.82-2.84,.96-5.95-.35-8.67-.6-1.43-1.58-3.07-1.97-4.35-.25-1.17-.22-2.08-.15-3.32,.16-1.79,.69-3.53,1.57-5.1,.31-.61,.79-1.17,1.17-1.72,.87,1.52,1.04,3.49,.72,5.04-.51,2.23-1.76,4.57-.81,6.86,.39,1.1,1.13,2.1,2.31,2.39,.64,.21,1.35,.2,1.98,.46,.36,.13,.7,.3,1.02,.5l.16,.05c.12-.03,.2-.16,.16-.29,0,0,0-.01,0-.02,.28-.32,.48-1.32,.6-1.52,1.43-3.91,3.6-6.29,2.13-10.89-.18-.59-.4-1.16-.66-1.72,.41-.08,.8-.19,1.21-.26,2.22-.56,4.56-.43,6.46,.74,.63,.35,1.47,.85,1.85,1.24,.23,.19,.36,.53,.67,.6,.59-.08,.1-.85,.06-1.19-.52-1.79-.79-3.53-.7-5.27,.02-3.09,1.71-5.89,2.56-8.92,.61-2.64,.08-5.5-1.16-7.9-1.73-3.27-5.58-5.27-9.19-3.94l-.57,.29c-1.32-1.69-3.29-2.82-5.31-3.53-1.29-.5-2.64-.7-3.94-1.14-2.32-.86-5.04-2.14-7.23-.66,.03-.11,.09-.18,.1-.23,1.39-2.33,1.47-5.14,1.72-7.77,.05-1.28,.27-2.55,.65-3.78,0,.02,.03,.03,.05,.02,0,0,0,0,0,0,.83-.12,1.62,.37,2.58,.5,.87,.08,1.74,.1,2.61,.04,.2,.48,.4,.96,.71,1.38,.72,.97,1.71,1.67,2.82,2.17,2.48,1.09,3.61-1.06,4.7-2.87,.4-.61,1.09-1.01,1.78-1.59,.69-.57,1.25-1.27,1.66-2.07,.66-1.23,.89-2.78,.34-4.11-.4-.87-1.33-1.19-2.19-1.47-1.32-.39-2.66-.55-3.94-1.05-.93-.33-1.77-.83-2.75-1.09-.75-.24-1.57-.18-2.33-.1-.82,.18-1.65,.28-2.49,.3,.47-2.03,.86-4.24,2.07-5.63,1.07-1.31,2.66-1.86,4.28-1.94,.24-.03,.48,0,.71,.08,.69,1.25,1.56,2.51,2.99,2.93,1.02,.41,2.3,.2,3.07-.55,.13-.16,.23-.33,.31-.52,.61,2.06,1.91,3.18,4.14,3.01,.62,0,1.23-.14,1.85-.24,.25-.04,.53-.1,.73-.24,.42-.31,.47-1,.02-1.26-.64-.29-1.42,.02-2.08,.13-.73,.15-1.19,.39-1.74,.18-.86-.36-1.62-1.31-2.37-2,1.15-.28,2.18-.9,2.84-1.87,.74-.83,1.57-1.21,2.68-1.47,1.05-.23,2.18-.54,2.9-1.4,1.01-1.42,1.02-3.66-.33-4.89-2.01-1.82-4.4-.73-4.33,2.01,0,.85,.11,1.95-.08,2.54-.28,.77-.94,1.38-1.81,1.87-.73,.33-1.47,.71-1.96,1.32,0-2.01-1.41-2.99-3.09-4.35-1.35-1.09-2.91-1.9-4.58-2.38-.68-.19-1.45-.46-2.15-.19-.76,.35-.59,1.29-.17,1.83,.87,1.43,2.59,2.33,2.68,3.81,.09,.27-.04,.69,0,1.03-1.73-.05-3.53,.61-4.69,1.92-1.6,1.67-1.87,4.01-2.38,6.15-1.39,.09-2.81,.11-4.19,.28-.05-.02-.09,0-.14,.07-.04-.02-.09-.03-.14-.02-.14,.05-.21,.2-.16,.34,.02,.04,.04,.08,.07,.11,1.34,.68,2.5,1.66,3.4,2.86-.91,2.39-2.04,4.72-2.63,7.22-.59,2.67-.36,5.64-1.08,8.07-.31,1.23-.86,2.06-1.38,3.22,.05-.07-.02,.05-.09,.18-.15,.15-.27,.34-.35,.54l-.05-.02c-2.73-.87-5.46,1.2-7.78,2-.76,.26-1.6,.37-2.22,.47-.67,.08-2.58,.12-1.23,1.08,1.36,.91,2.87,1.65,4.19,2.67,.76,.68,1.46,1.71,1.97,2.7,1.37,2.74,2.42,5.82,4.37,8.22-.02,.06-.02,.12,0,.18,.82,1.59,.08,3.27-1.53,4.14-.74,.38-1.9,.49-2.8,.99-2.57-1.09-5.38,.76-6.78,2.91-.54,1.04-.72,2.25-.76,3.39,0,.35,.01,.7,.05,1.05-.12-.16-.32-.25-.52-.22-.92,.12-1.53,1.46-1.9,1.87-.49,.61-1.31,.85-2.05,.97,.92-2.22,1.27-4.91,1.33-6.54,0-.53,.13-1.14,.05-1.64,.07-.03,.12-.09,.14-.16,.05-.34,.83-.83,1.16-1.4,.4-.7,.52-1.52,.51-2.32,.09-1.65-.59-3.23-1.62-4.53-.98-1.38-2.75-2.03-3.98-2.69-1.7-.96-3.08-2.08-3.73-3.85-.28-.81-.39-1.67-.32-2.52,.18-1.12,.11-2.92-1.49-2.63-2.24,1.29-2.16,6.66-1.58,8.91,.82,3.42,2.24,7.39,1.69,10.58-.2,1-.64,1.71-1.35,1.72-.05-.02-.09,0-.14-.02-.73-1.68-1.68-3.25-2.65-4.8-.07-.14-.16-.23-.24-.37,.36-.53,.65-1.1,.87-1.7,.29-.77,.49-1.56,.61-2.37,.19-.14,.08-.53,.06-.75-.1-1.07-.65-2.04-1.07-3.03-.69-1.52-.73-3.25-1.39-4.87-.88-1.79-2.62-3.26-4.63-3.43-.16-.02-.32-.01-.48,.02-.2-1.32-.29-2.65-.26-3.98,.96-.31,1.82-.98,2.16-1.96,.2-.44,.29-.91,.27-1.39,1.1-.3,2.28-.77,2.75-1.87,.1-.32,.21-.64,.27-.95,.27,.53,.61,1.01,1.01,1.45,1.46,1.26,2.91-.78,3.57-1.93,.94-1.56,2.99-2.79,3.6-4.81,.69-1.96,.46-4.4-1.01-5.96-.99-1.05-2.35-1.79-3.78-2.12-1.08-.16-2.19-.03-3.2,.39l-.04,.02c-.83-.53-1.77-.84-2.75-.91-1.42-.16-2.75,.48-4.11,.87-.38,.09-.78,.11-1.17,.07l-.05-.02s-.09-.03-.14-.02c-.58-1.22-1.17-2.44-1.68-3.7-.44-1.03-.9-2.09-1.32-3.17,.62,.08,1.25,.03,1.85-.15,.97-.28,1.73-1.25,1.64-2.28-.06-.64-.39-1.28-.36-1.74-.02-.39,.31-.7,.61-1.25,.45-.95-.02-2.04-.55-2.89-.89-1.38-2.67-2.07-4.31-1.76-.59,.08-1-.02-1.51-.16,1.02-.97,1.32-2.65,2.09-3.67,.17-.22,.37-.43,.58-.61-.03,.1,0,.21,.09,.27,0,.08,.03,.16,.07,.23,.42,1.58,1.16,3.05,2.19,4.33,.78,1.08,1.89,1.93,3.26,1.99,.73,.12,1.4-.23,1.98-.58,.65-.38,1.32-.73,2-1.07,1.74-.88,3.84-.61,5.31,.66,.48,.33,.87,.99,1.39,1.48,.08,.13,.24,.17,.37,.09,.09-.05,.14-.15,.13-.26-.04-.16-.2-.3-.27-.44-.92-1.36-1.6-3.11-2.63-4.59-1.34-1.9-2.8-3.88-4.79-5.13-1.32-.75-2.89-1.01-4.4-1-1.52,.02-2.95,.76-3.85,1.98-.29,.43-.52,.89-.68,1.38-.06,.03-.12,.07-.16,.13-1.29,.89-1.55,2.28-2.22,3.51-.35,.63-.61,.99-1.12,1.29l-.14,.07c-.86-3.14-1.57-6.35-1.34-9.46,.01-.16,.03-.32,.07-.48,.25-.04,.52-.04,.75-.12,.9-.24,1.43-1.05,1.68-1.94,.41-1.2,.45-2.6-.33-3.68-.13-.16-.33-.46-.52-.58,.02-.06,.03-.13,.03-.2,.63,.35,1.25,.07,1.76-.32l.02,.04c.23,.19,.59,.1,.86,.19,.25,.05,.94,.18,1.16,.34,.68,.37,.97,.84,1.42,1.46,.4,.51,.92,.9,1.53,1.14,1.32,.66,2.92,.64,3.63,1.75,.56,.83,.93,2.16,1.67,3.07,.4,.5,.84,.96,1.33,1.37,.25,.23,.56,.47,.9,.52,.87,.04,.38-.82,.23-1.28-.22-.65-.34-1.32-.36-2-.05-1.14,.6-2.14,.56-3.42,.06-1.01-.26-1.97-.75-2.84-.6-1.18-1.46-2.2-2.53-2.99-1.55-1.13-3.52-1.52-5.38-1.07-.89,.28-1.63,.84-2.35,1.34-1.08,.78-2.14,2.18-3.07,2.3-.34,.04-.34-.05-.64-.21,.23-1.37,.39-2.71,.63-4.08,.17-.98,.67-2.18,1.33-3.23,.05,.02,.09,0,.16-.04,.67-.43,1.6-.02,2.63,.25,1.85,.3,3.79,.33,3.76-2.07,0-.71-.07-1.62,.06-2.13,.22-.87,.51-1.87,.06-2.76,.74-.56,1.5-1.09,2.27-1.57,1.32-.8,2.72-1.46,4.17-1.97,.54,.26,1.07,.61,1.66,.71,1.14,.22,2.63,.07,3.59,.21,1.16,.25,1.93,.88,3.04,1.39,1.16,.43,2.46,.17,3.67,.17,.39-.02,1.25,.07,.88-.54-2.15-2.52-4.52-5.05-7.63-6.31-2.23-.86-5.93-.57-6.61,2.2,0,.8,.34,1.35,.45,2-.39,.15-.76,.31-1.13,.49-1.64,.77-3.19,1.72-4.63,2.83-.45-.71-1.15-1.28-1.83-1.74-.75-.51-1.49-.98-2.36-1.29-1.71-.64-3.62,.44-4.97,1.04-.54,.26-1.12,.4-1.72,.39-.48,.02-1.01-.06-1.4,.23-.67,.52-.52,1.52-.17,2.19,.24,.46,.74,.74,1.2,.95,.73,.29,1.98,.19,2.51,.27,.68,.1,1.12,.36,1.45,.82,.14,.21,.2,.46,.19,.71-.03,.46-.17,.89-.16,1.34-.06,.57,.17,1.12,.5,1.58,.03,.06,.07,.12,.13,.16-.75,1.15-1.32,2.38-1.55,3.75-.27,1.57-.42,3.08-.73,4.58-.07-.05-.15-.08-.23-.1-1.81-.81-4.23-3.1-6.51-1.79-1.1,.48-1.9,1.69-2.68,2.27-1.52,1.05-3.17,1.41-4.85,.57-1.36-.55-1.72,.39-1.01,1.51,.56,.83,1.35,1.5,2.21,2.04,.68,.45,1.41,.84,2.27,.84,1.3-.09,2.69-.67,3.73-.49,.98,.17,1.89,.63,2.82,.96,.82,.29,1.75,.53,2.66,.55-.03,.16-.05,.32-.07,.48-.12,1.58,.02,3.16,.25,4.74,.27,1.47,.59,2.96,.98,4.42-.48-.21-1.01-.27-1.53-.19-.99,.15-1.8,.75-2.72,1.14-.85,.35-2.16,.49-2.74-.2-.63-.7-1.09-1.68-2.05-1.98-.75-.15-.65,.83-.62,1.31,.03,.84,.43,1.61,.85,2.34,.67,1.19,1.61,2.2,2.74,2.97,1.38,.94,2.68,1.39,4.08,2.19,1.11,.77,2.21,1.68,3.49,2.18,.64,.28,1.3,.49,1.98,.63,.33,.81,.68,1.66,1.01,2.48,1.19,2.74,2.52,5.32,3.48,8.05-1.71-.28-3.42-.47-5.03-1.34-.89-.43-2.06-1.04-3.01-1.76-1.11-.86-3.34-2.84-4.06-.59-.27,1.21,.21,2.49,.9,3.47,.96,1.25,2.2,2.44,2.78,3.75,1.14,3.35,1.9,7.25,4.73,9.86,1.12,1.04,2.34,2.19,3.92,2.32,.33,.01,.66-.02,.98-.1-.02,.14,0,.27-.01,.41,.01,1.16,.12,2.32,.31,3.46-2.63,.28-5.1,1.91-6.76,3.89-1.9,2.51-3.42,5.28-4.52,8.23-.34,1.07-1.02,2.18-.67,3.3,.31,.96,1.37,1.62,2.39,1.68,.76,0,1.47-.36,2.2-.6,.28-.11,.56-.19,.85-.26-.12,.84-.44,1.64-.95,2.32-.75,1.06-1.91,2.19-2.55,3.55-1.31-.78-2.9-.95-4.34-.45-1.86,.64-3.12,2.28-4.53,3.54-.86,.85-1.48,1.39-2.68,1.56-1.08,.16-2.88-.04-4.14,.39-1.29,.35-2.19,1.4-2.71,2.56-1.44,2.84-1.29,6.17-1.26,9.28,.12,2.93,.09,5.9,.55,8.8,.23,1.05,.33,2.29,.77,3.23,.85,1.13,1.46-.89,1.69-1.23h0Zm68.51-72.07c.51,.9,.89,1.82,1.33,2.76,.42,.81,.85,1.57,1.2,2.42,.12,.24,.22,.49,.29,.74-.96,.05-2.03,.06-2.79-.13-.66-.15-1.32-.48-2.01-.44-.03,.01-.06,.01-.09,0,.57-1.77,1.34-3.55,2.07-5.36Zm-5.32,18.84c.12-.07,.2-.18,.25-.31,1.84-1.89,4.33-.98,7.01,.06,1.68,.66,3.48,.85,5.1,1.57,1.34,.52,2.88,1.51,3.8,2.43,.2,.19,.38,.4,.54,.62-1.46,.89-2.61,2.24-3.08,3.91-1.03,2.86-.99,6.15-1.65,8.86-.56,1.95-1.45,3.7-2.8,5.16-1.03-1.66-2.67-1.53-4.4-1-.87,.22-1.53,.34-1.96-.15-.32-.37-.53-.85-.78-1.34,.13,.07,.29,.12,.41,.19,.89,.26,1.87,.16,2.76-.03,1.97-.61,2.81-2.88,3.07-4.71,.04-.52-.04-1.05-.25-1.53,.35-.05,.68-.17,.99-.33,.65-.38,1.14-.99,1.6-1.58,1.08-1.54,1.33-3.5,.88-5.33-.95-3.85-4.13-5.07-7.8-5.15-1.25-.07-2.59-.59-3.89-1.13,.16-.13,.18-.18,.21-.2h0Zm-4.42,22.41c.9-.24,1.83-.45,2.53-1.08,.77-.68,1.26-1.61,1.37-2.63,.02-.29-.01-.57-.08-.85,.09,.09,.18,.18,.29,.3-.38,1.27-.48,2.62-.56,3.95-.03,.73,.02,1.42,.33,2.11,.02,.04-.02,.05,0,.09,.66,1.36,2.06,2.61,2.75,3.68,.78,1.52,.15,3.41-.83,4.63-1.07,1.31-2.41,2.36-3.69,3.51l-.05-.11c-.22-.41-.51-.77-.87-1.07-1.33-1.19-3.16-1.37-4.44-2.36-.57-.42-.83-1.18-.5-1.67,.04-.02,.05-.07,.09-.09,.19-.14,.41-.25,.6-.4,1.54-.93,3.19-2.14,3.49-3.99,.1-.92,.08-1.86-.09-2.77-.09-.43-.2-.85-.34-1.26Zm-32.96,11.12c.16-.05,.32-.09,.48-.11,.52-.04,.78,.04,1.3,.18,1.3,.45,2.7,1.34,4.15,1.89t-.05,.07c-.38,1.18-1.24,1.94-2.55,2.25-1.06,.19-1.86,.91-2.43,1.79-.15,.21-.29,.43-.42,.66,.12-.37,.28-.77,.4-1.14,.28-1.04,.32-2.14,.14-3.2-.15-.82-.54-1.65-1.01-2.39h0Zm-5.98-10.92c.58-.79,.83-1.68,.96-2.64,.32-.08,.66-.11,.94-.17,1.65-.18,3.03,.23,4.28,1.28,.95,.81,2.06,1.49,3.33,1.51,1.55-.13,2.83-1.01,3.74-2.2,1.21,1.92,2.38,3.83,3.2,6.04,.46,1.15,.76,2.25,1.07,3.38-.29,.15-.62,.21-.94,.17-.61-.05-1.5-.48-2.23-.68-2.3-.65-4.73-.33-6.97,.37-1.1,.39-2.26,1.17-3.13,1.3-.1,0-.2,0-.3,.02-1.8-.19-3.62-.86-4.65-2.43-.49-.69-.85-1.48-1.5-2.04-.14-.1-.29-.21-.45-.35,.66-1.24,1.71-2.23,2.64-3.55h0Z"/>
    <path class="cls-3" d="M40.81,254.85c.4,2.81,1.72,5.69,3.52,8.48,2.32,3.58,5.38,7.04,7.75,9.99,2.08,2.65,4.29,5.16,6.58,7.59,2.3,2.43,4.7,4.75,7.21,6.97,3.33,2.97,6.86,5.72,10.56,8.23,8.72,5.88,18.75,10.57,30.59,13.64,1.24,.28,2.48-.49,2.76-1.74,.28-1.24-.49-2.48-1.74-2.76h0c-11.54-2.31-21.52-6.14-30.12-11.45-3.7-2.27-7.2-4.85-10.46-7.72-2.44-2.16-4.74-4.48-6.89-6.93-2.14-2.46-4.15-5.02-6.03-7.68-2.09-3-4.85-6.53-6.83-10.16-1.26-2.32-2.18-4.67-2.31-6.91-.13-1.27-1.26-2.19-2.53-2.06-1.26,.13-2.18,1.25-2.06,2.51h0ZM108.93,34.36c1.91-1.5,4.06-2.67,6.33-3.6,3.55-1.46,7.38-2.38,11.04-3.13,8.49-1.73,17.29-2.12,25.82-.83,8.53,1.29,16.75,4.27,24.06,9.15,6.11,4.14,11.52,9.21,16.99,14.17,3.72,3.38,7.46,6.71,11.5,9.65,4.34,3.16,9.02,5.87,14.32,7.71,4.38,1.53,8.8,2.24,13.24,2.58,10.09,.77,20.28-.5,30.34,1.67,4.16,.9,7.96,2.48,11.53,4.47,5.5,3.06,10.45,7.11,15.35,11.26,.98,.82,2.43,.68,3.25-.3,.82-.98,.68-2.43-.3-3.25,0,0-.01-.01-.02-.02-5.23-4.19-10.52-8.24-16.34-11.28-3.97-2.07-8.15-3.68-12.73-4.55-10.27-1.96-20.61-.45-30.88-1.02-4.2-.23-8.38-.82-12.55-2.18-5.07-1.67-9.56-4.18-13.74-7.14-3.99-2.83-7.7-6.06-11.35-9.38-5.55-5.04-10.98-10.27-17.15-14.52-7.55-5.27-16.11-8.52-25.01-10.11-8.88-1.58-18.11-1.48-27.04,.06-3.94,.67-8.05,1.52-11.9,2.95-2.69,1-5.25,2.29-7.54,3.97-1.01,.77-1.21,2.22-.44,3.23,.77,1.01,2.22,1.21,3.23,.44h0Z"/>
    <path class="cls-2" d="M195.02,108.59c0-8.26-6.69-14.95-14.95-14.95H69.78c-8.26,0-14.95,6.7-14.95,14.95v155.79c0,8.26,6.69,14.95,14.95,14.95h110.29c8.26,0,14.95-6.7,14.95-14.95V108.59Z"/>
    <g class="cls-21">
      <g>
        <path class="cls-4" d="M211.64,118v-21.45c0-1.61-1.61-2.91-3.59-2.91H41.81c-1.98,0-3.59,1.3-3.59,2.91v21.45c0,1.6,1.61,2.91,3.59,2.91H208.05c1.98,0,3.59-1.3,3.59-2.91h0Z"/>
        <circle class="cls-17" cx="70.4" cy="107.27" r="3.69"/>
        <circle class="cls-17" cx="82.1" cy="107.27" r="3.69"/>
        <circle class="cls-17" cx="94.16" cy="107.27" r="3.69"/>
      </g>
    </g>
    <circle class="cls-16" cx="95.51" cy="161.07" r="25.42" transform="translate(-74.2 240.24) rotate(-84.35)"/>
    <g class="cls-20">
      <path class="cls-5" d="M70.29,173.68c12.46-19.8,18.22-20.88,25.21-13,7,7.87,9.14,10.19,17.14,6.56,7.99-3.63,11.71,.3,14.18,5.73s-30.46,20.28-36.54,20.16-32.45,.36-19.98-19.44h0Z"/>
    </g>
    <circle class="cls-25" cx="109.82" cy="147.18" r="8.93"/>
    <g>
      <path class="cls-13" d="M119.91,206.63c0-1.23-.99-2.24-2.22-2.24,0,0-.01,0-.02,0h-40.28c-1.23,0-2.23,1-2.23,2.23,0,0,0,0,0,0h0c0,1.23,.99,2.24,2.22,2.24h40.29c1.23,0,2.24-.99,2.24-2.22,0,0,0-.01,0-.02h0Z"/>
      <path class="cls-8" d="M188.37,165.28c0-3.73-3.03-6.75-6.75-6.75h-46.61c-3.72,0-6.74,3.02-6.74,6.74h0c0,3.73,3.01,6.75,6.73,6.75h46.62c3.73,0,6.75-3.02,6.75-6.75h0Z"/>
      <path class="cls-13" d="M117.11,237.88c0-1.24-1-2.24-2.24-2.24h-38.74c-1.24,0-2.24,1-2.24,2.24h0c0,1.24,1,2.24,2.24,2.24h38.74c1.24,0,2.24-1,2.24-2.24h0Zm52.92-.25c0-1.24-1-2.24-2.24-2.24h-38.74c-1.24,0-2.24,1-2.24,2.24h0c0,1.24,1,2.24,2.24,2.24h38.74c1.24,0,2.24-1,2.24-2.24h0Zm0-22.69c0-.59-.23-1.16-.65-1.58-.42-.42-1-.66-1.59-.66H77.39c-.6,0-1.17,.24-1.59,.66-.42,.42-.65,.99-.65,1.58h0c0,.6,.23,1.17,.65,1.59,.42,.42,1,.66,1.59,.66h90.39c.6,0,1.17-.24,1.59-.66,.42-.42,.65-.99,.65-1.58h0Zm-52.92,31.25c0-1.24-1-2.24-2.24-2.24h-38.74c-1.24,0-2.24,1-2.24,2.24h0c0,1.24,1,2.24,2.24,2.24h38.74c1.24,0,2.24-1,2.24-2.24h0Zm52.92-.25c0-1.24-1-2.24-2.24-2.24h-38.74c-1.24,0-2.24,1-2.24,2.24h0c0,1.24,1,2.24,2.24,2.24h38.74c1.24,0,2.24-1,2.24-2.24h0Zm0-22.19c0-.59-.23-1.16-.65-1.58-.42-.42-1-.66-1.59-.66H77.39c-.6,0-1.17,.24-1.59,.66-.42,.42-.65,.99-.65,1.58h0c0,.6,.23,1.17,.65,1.59,.42,.42,1,.66,1.59,.66h90.39c.6,0,1.17-.24,1.59-.66,.42-.42,.65-.99,.65-1.58h0Zm-52.92,31.25c0-1.24-1-2.24-2.24-2.24h-38.74c-1.24,0-2.24,1-2.24,2.24h0c0,1.24,1,2.24,2.24,2.24h38.74c1.24,0,2.24-1,2.24-2.24h0Zm52.92-.25c0-1.24-1-2.24-2.24-2.24h-38.74c-1.24,0-2.24,1-2.24,2.24h0c0,1.24,1,2.24,2.24,2.24h38.74c1.24,0,2.24-1,2.24-2.24h0Z"/>
    </g>
    <path class="cls-1" d="M282.47,119.94c8.85,0,15.31,8.15,14.05,19.22-.89,7.84-10.47,16.01-19.94,19.92-8.18,3.38-8.22-8.99-8.22-20.12s5.26-19.01,14.11-19.01h0Z"/>
    <path class="cls-7" d="M275.72,178.79c8.51,19.72-48.52,82.91-67.54,81.29-19.02-1.63-46.56-91.05-46.56-91.05l-8.01-10.5,21.14,2.68-1.47,2.87s29.81,51.9,37.91,55.79c4.03,1.93,14.53-29.83,36.82-42.47,24.31-13.76,22.84-9.89,27.71,1.39Z"/>
    <g class="cls-19">
      <path class="cls-6" d="M222.52,191.97c6.28-.9,16.67,.79,20.24,6.6,2.04,3.33,1.37,7.3,2.35,10.94,2.17,8.12,9.74,15.93,18.67,15.61,10.93-.39,14.47-15,16.54-23.31,2.78-11.18,5.52-25.53-3.84-34.42-1.67-1.59-3.59-2.85-5.66-3.86-2.74-1.33-5.66-2.25-8.67-2.72-3.76-.6-7.67-.63-11.42,.04-6.17,1.12-11.9,4.26-16.67,8.26-6.18,5.2-10.69,11.62-14.27,18.81l2.73,4.05Z"/>
    </g>
    <path class="cls-14" d="M288.12,164.7c29.86,2.63,39.96,3.29,38.36,58.5-1.61,56.31-75.59,54.33-75.59,54.33,0,0,10.86-35.22,2.14-65.25-10.55-36.25,14-49.44,35.09-47.58h0Z"/>
    <path class="cls-12" d="M215.11,151.37c0-5.43-4.41-9.84-9.84-9.84h-55.98c-5.44,0-9.84,4.41-9.84,9.84s4.41,9.84,9.84,9.84h55.98c5.44,0,9.84-4.41,9.84-9.84Z"/>
    <path class="cls-18" d="M154.07,147.07v1.45c-.35-.07-.7-.1-1.06-.11-.94,0-1.63,.2-2.08,.6-.44,.4-.7,1.08-.76,2.03h.07c.38-.66,1.01-.98,1.91-.98,.77,0,1.37,.24,1.83,.72,.45,.48,.67,1.14,.67,1.98,0,.92-.26,1.64-.77,2.17-.52,.53-1.23,.8-2.12,.8-.59,.01-1.17-.15-1.66-.47-.49-.33-.86-.8-1.07-1.35-.24-.59-.36-1.29-.36-2.12,0-1.58,.35-2.78,1.07-3.59s1.78-1.22,3.19-1.22c.38,0,.76,.02,1.13,.08h0Zm-1,5.74c0-.45-.11-.79-.33-1.03-.23-.24-.55-.36-.98-.36-.38-.01-.75,.12-1.04,.37-.26,.2-.42,.52-.42,.85-.02,.43,.13,.86,.4,1.19,.51,.59,1.4,.65,1.99,.13,.01,0,.02-.02,.03-.03,.24-.25,.36-.63,.36-1.13h0Zm9.57-1.67v.04c1.36,.17,2.04,.85,2.04,2.04,0,.78-.29,1.4-.88,1.84-.58,.45-1.42,.67-2.51,.67-.93,0-1.74-.15-2.43-.46v-1.51c.73,.36,1.52,.55,2.33,.56,.62,0,1.08-.1,1.38-.29,.31-.19,.48-.53,.46-.89,0-.45-.18-.77-.52-.95s-.89-.28-1.64-.28h-.72v-1.33h.68c.66,0,1.16-.09,1.5-.26s.52-.48,.52-.91c.01-.28-.1-.54-.31-.72-.2-.17-.53-.26-.96-.26-.32,0-.64,.05-.94,.15-.34,.12-.67,.28-.98,.48l-.8-1.22c.84-.54,1.82-.82,2.81-.83,.87,0,1.55,.18,2.05,.55,.48,.34,.77,.9,.75,1.48,.01,.49-.16,.97-.48,1.35-.31,.37-.77,.62-1.35,.77h0Zm10.47-.01c.63,.33,1.08,.68,1.37,1.05,.7,.92,.52,2.22-.4,2.92-.55,.43-1.27,.64-2.15,.64-.94,0-1.68-.2-2.2-.61-.52-.4-.78-.96-.78-1.68,0-.47,.13-.92,.41-1.31,.26-.37,.67-.7,1.23-.96-.91-.57-1.37-1.28-1.37-2.13-.01-.6,.27-1.16,.77-1.5,.51-.37,1.16-.56,1.96-.56,.8,0,1.46,.18,1.96,.55,.49,.35,.77,.92,.76,1.52,0,.88-.52,1.57-1.53,2.06h0Zm-1.18-.69c.43-.18,.73-.37,.89-.56,.16-.19,.25-.43,.25-.68,.01-.26-.11-.5-.31-.65-.25-.17-.55-.25-.85-.24-.29-.01-.58,.07-.82,.23-.21,.15-.33,.4-.31,.66,0,.25,.09,.49,.26,.68,.26,.25,.56,.44,.89,.57h0Zm-.1,1.43c-.89,.37-1.33,.87-1.33,1.49-.01,.31,.12,.61,.37,.79,.24,.19,.59,.29,1.03,.29s.81-.09,1.06-.28c.25-.19,.39-.48,.37-.79,0-.27-.11-.53-.3-.72-.21-.23-.55-.46-1.02-.69l-.18-.09Zm13.26,3.74h-5.93v-1.25l2.2-2.18c.82-.82,1.34-1.38,1.54-1.7,.2-.29,.31-.63,.31-.98,.02-.29-.1-.56-.3-.76-.22-.19-.5-.29-.79-.27-.34,0-.67,.07-.98,.2-.39,.18-.76,.41-1.1,.68l-.91-1.14c.34-.26,.69-.5,1.06-.72,.28-.16,.58-.27,.89-.36,.35-.1,.71-.14,1.08-.14,.8,0,1.45,.22,1.94,.66,.48,.42,.75,1.03,.74,1.67,0,.41-.08,.81-.24,1.18-.18,.41-.43,.79-.73,1.13-.47,.53-.97,1.03-1.49,1.51l-1,.93v.07h3.71v1.47Zm4.7,.05v-1.46c.35,.08,.7,.12,1.06,.11,.95,0,1.65-.21,2.1-.62,.45-.41,.69-1.1,.73-2.07h-.07c-.22,.38-.48,.65-.79,.8-.36,.16-.75,.24-1.14,.22-.77,0-1.38-.24-1.82-.73-.44-.49-.66-1.16-.66-2.03s.26-1.6,.78-2.12c.52-.52,1.23-.78,2.1-.78,.96,0,1.72,.34,2.27,1.02,.56,.68,.84,1.65,.84,2.91,0,1.57-.36,2.76-1.07,3.58s-1.77,1.23-3.18,1.23c-.38,0-.77-.02-1.14-.08h0Zm.99-5.79c0,.95,.43,1.43,1.29,1.43,.39,.01,.77-.12,1.06-.37,.26-.2,.42-.51,.42-.84,0-.42-.13-.84-.4-1.17-.5-.59-1.38-.67-1.97-.17-.02,.02-.04,.03-.06,.05-.23,.25-.35,.61-.35,1.07h0Zm11.59,5.87c-.98,0-1.72-.37-2.21-1.1-.5-.74-.75-1.82-.75-3.25,0-1.48,.25-2.58,.74-3.3s1.24-1.08,2.22-1.08c1.97,0,2.97,1.46,2.97,4.38,0,1.52-.25,2.62-.73,3.32-.49,.7-1.24,1.04-2.24,1.04h0Zm0-1.42c.48,0,.82-.23,1.02-.69,.21-.46,.31-1.21,.31-2.25s-.1-1.82-.31-2.27c-.2-.46-.54-.68-1.02-.68-.3-.02-.6,.1-.8,.33-.19,.22-.33,.54-.42,.97-.09,.55-.13,1.11-.12,1.67,0,1.03,.11,1.78,.31,2.24,.21,.46,.55,.69,1.02,.69h0Z"/>
    <path class="cls-11" d="M170.26,161.21c-.09-1.1,2.28-4.89,3.26-5.47,.95-.56,2.55,.87,2.66,1.97,.09,1.1-1.11,4.03-2.09,4.62s-3.74-.01-3.83-1.11Z"/>
    <path class="cls-15" d="M283.41,119.94s1.94,4.28,.54,7.65c-.37,.89-1.24,1.54-1.94,2.19-1.8,1.63-4.06,2.5-6,3.89-.58,.41-1.82,1.2-1.74,2.05,.1,.99,2.05,.52,2.58,.37,2.1-.63,3.76-1.37,4.9,.34,1.15,1.75,.23,6.05-.96,8.96-.21,.52-1.17,2.71-.07,2.92,.71,.14,1.34-.68,1.72-1.15,1.12-1.36,1.41-6,2.52-7.37,.52-.64,1.31-1.36,2.05-.21,2.27,3.54-.02,7.19-2.55,8.41-3.04,1.47-3.43,8.88-3.43,8.88,0,0,6.6,2.07,8.65-3.24,3.62,1.26,10.5,.4,10.45-6.59,6.51-2.7,9.5-12.92,3.39-16.45,.89-.43,1.43-1.69,1.67-2.56,2.5-8.81-7.8-18.69-17.51-13.17-2.14,1.22-3.7,2.79-4.27,5.09h0Z"/>
    <circle class="cls-24" cx="192.16" cy="297.53" r="33.04"/>
    <path class="cls-2" d="M172.8,300.41l10.94,13.64c1.59,1.99,4.5,2.31,6.48,.71,.35-.28,.65-.6,.9-.97l20.43-29.44c1.45-2.09,.93-4.97-1.16-6.42-2.09-1.45-4.97-.93-6.42,1.16l-16.91,24.36-7.07-8.82c-1.6-1.98-4.51-2.28-6.49-.68-1.96,1.59-2.28,4.47-.71,6.45h0Z"/>
    <path class="cls-9" d="M311.94,171c21.4,1.88,52.61,77.24,39.45,98.05-13.17,20.81-96.25,22.96-118.44,26.81-16.86,14.73-23.75-3.59-21.33-3.62,10.74-.11,10.45-8.72,10.45-8.72,0,0,.18-.9-2.86-4.56,3.35-2.36,10.83,4.45,10.83,4.45,0,0,80.12-30.82,87.39-36.11,3.62-2.63-18.95-26.97-19.88-52.58-.31-8.78,2.15-24.8,14.39-23.72h0Z"/>
    <g class="cls-23">
      <path class="cls-10" d="M298.26,224.07c2.19-5.95,8.61-14.3,15.42-14.67,3.9-.21,7.07,2.26,10.75,3.13,8.18,1.95,18.65-1.01,22.61-9.02,4.85-9.8-6.33-19.86-12.65-25.63-8.52-7.76-19.84-16.99-32.12-12.97-2.2,.72-4.21,1.81-6.09,3.14-2.48,1.78-4.67,3.91-6.51,6.34-2.32,3.02-4.2,6.45-5.39,10.07-1.95,5.96-1.91,12.5-.65,18.59,1.64,7.91,5.15,14.92,9.78,21.49l4.86-.48Z"/>
    </g>
  </g>
</svg>