<?xml version="1.0" encoding="UTF-8"?>
<svg id="SvgjsSvg1001" xmlns="http://www.w3.org/2000/svg" xmlns:xlink="http://www.w3.org/1999/xlink" viewBox="0 0 360 360">
  <defs>
    <style>
      .cls-1 {
        fill: url(#linear-gradient-4);
      }

      .cls-1, .cls-2, .cls-3, .cls-4, .cls-5, .cls-6, .cls-7, .cls-8, .cls-9, .cls-10, .cls-11, .cls-12, .cls-13, .cls-14 {
        fill-rule: evenodd;
      }

      .cls-15 {
        fill: url(#linear-gradient-2);
      }

      .cls-2 {
        fill: #eaeaea;
      }

      .cls-3 {
        fill: #fff;
      }

      .cls-4 {
        fill: #f7f7f7;
      }

      .cls-5 {
        fill: #adadad;
      }

      .cls-6 {
        fill: url(#linear-gradient-9);
      }

      .cls-7 {
        fill: url(#linear-gradient-6);
      }

      .cls-16 {
        clip-path: url(#clippath-1);
      }

      .cls-17 {
        fill: #0d0d0d;
      }

      .cls-8 {
        fill: url(#linear-gradient-5);
      }

      .cls-9 {
        fill: url(#linear-gradient-10);
      }

      .cls-10 {
        fill: url(#linear-gradient-11);
      }

      .cls-11 {
        fill: #cacaca;
      }

      .cls-18 {
        clip-path: url(#clippath);
      }

      .cls-19 {
        fill: none;
      }

      .cls-20 {
        fill: url(#linear-gradient-3);
      }

      .cls-21 {
        fill: url(#linear-gradient);
      }

      .cls-12 {
        fill: #f0f0f0;
      }

      .cls-13 {
        fill: url(#linear-gradient-7);
      }

      .cls-14 {
        fill: url(#linear-gradient-8);
      }
    </style>
    <linearGradient id="linear-gradient" x1="-2755.81" y1="-7767.71" x2="-2729.47" y2="-7766.4" gradientTransform="translate(-58709.98 -29837.45) rotate(134.89) scale(8.48 8.11) skewX(-2.61)" gradientUnits="userSpaceOnUse">
      <stop offset="0" stop-color="#eaeaea"/>
      <stop offset=".54" stop-color="#dadada"/>
      <stop offset="1" stop-color="#a2a2a2"/>
    </linearGradient>
    <linearGradient id="linear-gradient-2" x1="-2793.33" y1="-7846.6" x2="-2766.99" y2="-7846.6" gradientTransform="translate(-32283.05 -6753.72) rotate(121.65) scale(3.99)" gradientUnits="userSpaceOnUse">
      <stop offset="0" stop-color="#eaeaea"/>
      <stop offset=".54" stop-color="#dadada"/>
      <stop offset="1" stop-color="#a2a2a2"/>
    </linearGradient>
    <linearGradient id="linear-gradient-3" x1="-2640.83" y1="-7759.61" x2="-2614.49" y2="-7759.61" gradientTransform="translate(-21258.8 56716.11) rotate(39.4) scale(7.37)" gradientUnits="userSpaceOnUse">
      <stop offset="0" stop-color="#eaeaea"/>
      <stop offset=".56" stop-color="#dbdbdb"/>
      <stop offset="1" stop-color="#a2a2a2"/>
    </linearGradient>
    <clipPath id="clippath">
      <path class="cls-19" d="M164.13,200.1c7.52,18.78,33.33,48.62,56.52,48.61,33.5,0,69.36-87.72,69.36-87.72,13.54-9.22,5.25-22.02-.87-32.75l-9.32,23.01s-40.32,56.4-57.7,53.86c-17.38-2.54-36.92-68.25-46.58-69.08s-18.93,45.3-11.41,64.08Z"/>
    </clipPath>
    <linearGradient id="linear-gradient-4" x1="-2696.94" y1="-7865.58" x2="-2670.6" y2="-7865.58" gradientTransform="translate(-33364.74 14831.06) rotate(85.3) scale(4.41)" gradientUnits="userSpaceOnUse">
      <stop offset="0" stop-color="#686868"/>
      <stop offset=".45" stop-color="#565656"/>
      <stop offset="1" stop-color="#2b2b2b"/>
    </linearGradient>
    <linearGradient id="linear-gradient-5" x1="-2739.8" y1="-7827.08" x2="-2713.46" y2="-7827.08" gradientTransform="translate(-40723.78 6047.41) rotate(101.02) scale(4.98)" gradientUnits="userSpaceOnUse">
      <stop offset="0" stop-color="#888"/>
      <stop offset="1" stop-color="#2b2b2b"/>
    </linearGradient>
    <linearGradient id="linear-gradient-6" x1="-2727.28" y1="-7903.55" x2="-2700.93" y2="-7903.55" gradientTransform="translate(-25296.01 6068.23) rotate(96.04) scale(3.12)" gradientUnits="userSpaceOnUse">
      <stop offset="0" stop-color="#f0f0f0"/>
      <stop offset=".47" stop-color="#dcdcdc"/>
      <stop offset="1" stop-color="#a7a7a7"/>
    </linearGradient>
    <clipPath id="clippath-1">
      <path class="cls-19" d="M86.04,136.17c-15.46,9.54-49.7,39.52-44.77,62.17,7.13,32.73,40.95,67.26,40.95,67.26,1.3,11.32,10.97,13.92,13,14.65,1.75,.63-5.11-15.28-4.37-16.56,2.38-4.1,7.07,2.1,8.16-1.9,.69-2.53-5.31-7.16-10.64-6.57,0,0-24.09-45.08-17.23-65.33,6.86-20.24,55.05-18.73,58.36-56.13,.88-9.99-3.07-22.54-43.45,2.4h0Z"/>
    </clipPath>
    <linearGradient id="linear-gradient-7" x1="-2786.71" y1="-7773.32" x2="-2760.37" y2="-7773.32" gradientTransform="translate(-38757.84 -16817.15) rotate(133.26) scale(5.14)" gradientUnits="userSpaceOnUse">
      <stop offset="0" stop-color="#6e6e6e"/>
      <stop offset=".56" stop-color="#606060"/>
      <stop offset="1" stop-color="#2b2b2b"/>
    </linearGradient>
    <linearGradient id="linear-gradient-8" x1="-2789.59" y1="-7832.94" x2="-2763.25" y2="-7832.94" gradientTransform="translate(-41691.24 -6135.78) rotate(118.03) scale(5.11)" gradientUnits="userSpaceOnUse">
      <stop offset="0" stop-color="#d4d4d4"/>
      <stop offset=".6" stop-color="#c8c8c8"/>
      <stop offset=".81" stop-color="#acacac"/>
      <stop offset="1" stop-color="#909090"/>
    </linearGradient>
    <linearGradient id="linear-gradient-9" x1="-2878.06" y1="-7922.1" x2="-2851.71" y2="-7922.1" gradientTransform="translate(-23443.75 -4659.2) rotate(121.3) scale(2.88)" gradientUnits="userSpaceOnUse">
      <stop offset="0" stop-color="#d4d4d4"/>
      <stop offset=".47" stop-color="#c2c2c2"/>
      <stop offset="1" stop-color="#909090"/>
    </linearGradient>
    <linearGradient id="linear-gradient-10" x1="-2969.65" y1="-7453.73" x2="-2943.31" y2="-7453.67" gradientTransform="translate(8327.27 11775.06) rotate(123.5) scale(1.78 -1.78) skewX(-.15)" gradientUnits="userSpaceOnUse">
      <stop offset="0" stop-color="#cacaca"/>
      <stop offset=".64" stop-color="#c1c1c1"/>
      <stop offset=".84" stop-color="#a6a6a6"/>
      <stop offset="1" stop-color="#888"/>
    </linearGradient>
    <linearGradient id="linear-gradient-11" x1="-2714.1" y1="-7376.2" x2="-2687.76" y2="-7376.2" gradientTransform="translate(12594.47 -9505.73) rotate(-107.54) scale(2)" gradientUnits="userSpaceOnUse">
      <stop offset="0" stop-color="#000"/>
      <stop offset=".53" stop-color="#121212"/>
      <stop offset="1" stop-color="#4d4d4d"/>
    </linearGradient>
  </defs>
  <rect id="SvgjsRect1084" class="cls-17" x="178.84" y="193.54" width="4.9" height="4.9" rx=".27" ry=".27"/>
  <g id="SvgjsG1008">
    <path class="cls-4" d="M171.52,77.5c167.58-4.38,183.58,118.83,148.4,119.83-67.99,1.93-72.46,39.29-117.27,80.65-72.37,66.82-157.53,70.63-152.45-103.55,2.14-73.1,53.32-95.15,121.32-96.93Z"/>
    <path class="cls-4" d="M287.82,213.63c48.42-10.81,57.74,10.95,47.58,13.24-19.64,4.42-16.96,11.24-30.65,22.16-19.97,15.93-43.02,9.69-48.42-10.28-3.6-13.31,11.85-20.73,31.49-25.12h0Z"/>
    <path class="cls-21" d="M271.1,262.48c-3.2-.93-6.07-1.83-9.04-3.07-3.87-1.52-7.28-4.06-11.06-5.76-3.6-1.73-7.53-2.43-11.28-3.72-2.06-.62-4.28-1.75-6.57-2.42,.82-.23,1.67-.48,2.51-.7,.52-.12,1.06-.27,1.56-.4,.75,.37,1.51,.71,2.29,1,1.72,.69,3.49,1.33,5.29,1.77,4.15,.95,8.38,1.69,12.69,1.88,4.54,.09,8.85-1.21,13.17-1.4,1.44-.05,2.91,.13,4.25,.17,.23-.01,.53-.21,.5-.46-.19-.34-.67-.44-.99-.67-3.07-1.88-6.43-3.22-10.05-3.45-4.53-.36-9.01,.61-13.28-.42-1.13-.21-2.24-.5-3.34-.85,1.59-.75,3.2-1.53,4.74-2.38,2.61-1.46,5.01-3.32,7.48-5.04,3.59-2.57,7.39-4.86,10.65-7.9,.48-.41,1.65-1.58,.36-1.45-1.67,.48-3.31,1.12-5.01,1.51-10.02,1.44-19.28,6.19-26.27,13.51-.99,1.05-1.93,2.14-2.72,3.36-.06,.07-.1,.14-.13,.23-1.63,.44-3.21,.92-4.83,1.41-.06,0-.09,.03-.15,.04-.6,.18-1.21,.37-1.78,.56,.43-.67,.89-1.42,1.25-1.81,1.13-1.37,2.2-2.02,3.51-3.17,3.18-2.86,5.96-6.41,7.5-10.51,1.42-3.69,2.97-6.87,5.21-10.15,1.07-3.17-11.22,8.98-11.81,9.53-2.78,2.55-4.59,6.04-6.06,9.55-.7,1.85-1.25,3.95-2.09,5.48-.37,.81-.94,1.49-1.37,2.25,0,.04,0,.08,.01,.13-1.28,.43-2.56,.93-3.83,1.4-.03,.02-.06,0-.09,.03-.59,.22-1.17,.44-1.75,.7,.03-.08,.03-.17,.06-.25,.11-.45,.29-.89,.51-1.31,2.59-4.22,5.9-7.94,8.7-12.03,1.48-2.15,2.96-4.36,3.92-6.81,.7-1.78,1.05-4.09,1.79-5.58,.92-1.68,2.03-3.23,3.15-4.75,.15-.28,1.25-1.41,1.54-2.07,.14-1.07-1.34,.02-1.76,.18-3.84,2.24-7.24,5.33-9.97,8.96-1.82,2.22-3.58,4.51-4.8,7.15-2.24,4.52-3.13,10.11-5.2,14.36-.62,1.23-1.37,2.39-2.25,3.46-.19,.21-.13,.38,.02,.43-1.63,.71-3.23,1.46-4.83,2.23,.41-2.49,1.92-5.06,3.32-7.47,1.66-2.82,3.1-5.77,4.52-8.72,.94-2.06,1.82-4.18,2.28-6.41,.6-3.45,.68-6.88,1.47-10.08,.26-1.04,.61-2.05,1.02-3.04,.16-.46,.49-.92,.38-1.41-.11-.25-.46-.16-.65-.01-.48,.47-.79,1.12-1.22,1.64-1.37,1.74-3.19,4.22-4.59,6.28-2.86,4.34-5.47,9-6.68,14.15-.9,3.83-.89,8.07-1.65,11.65-.25,1.46-.48,2.95-1.17,4.29-.02,.05-.08,.15-.07,.13-.06,.16-.23,.34-.18,.51,.01,.03,.04,.05,.07,.05-2.14,1.1-4.24,2.32-6.31,3.56,.03-.32-.02-.67,.06-1.01,.05-.65,.35-1.66,.62-2.54,.73-2.11,1.84-3.99,2.66-6.22,1.79-4.1,1.91-8.63,2.31-13,.39-4.83,0-9.59-.04-14.39,.02-.81,.08-1.62,.18-2.42l.03-.08c.18-.81,.32-1.63,.42-2.46,.06-.34-.34-.48-.58-.29-.35,.18-.3,.62-.39,.96-.13,.62-.2,1.23-.27,1.84-.53,2.42-1.34,5.01-2.13,7.37-1.49,3.81-3.54,7.43-4.5,11.45-.85,3.37-.6,6.9-.09,10.26,.33,1.75,.74,3.04,.61,4.87,0,1.72-.12,3.23-.53,4.72-.19,.63-.42,1.22-.66,1.83-.03,.08-.01,.16,.04,.22,.06,.05,.13,.08,.2,.07-1.47,.88-2.92,1.78-4.37,2.7,.32-.51,.59-1.04,.81-1.6,.96-2.21,1.26-4.62,1.57-6.99,.41-2.98,.49-6-.09-8.93-.43-2.45-1.27-4.77-1.83-7.17-.61-2.82-.92-5.69-.92-8.58,0-.16,.02-.31,.05-.47,.09-.42,.17-.82,.22-1.22-.64-.61-.92,.11-1.03,1.34-.57,2.89-1.65,6.24-1.94,9.29-.32,4.46,.19,8.96,1.14,13.26,.51,2.45,1.7,4.67,1.74,7.02,.03,1.4-.35,2.48-.79,3.93-.04,.2-.23,.43-.08,.64l.05,.02c-.02,.05-.03,.11-.03,.17-6.59,4.29-12.9,9.15-18.49,14.88-.69,.76-1.41,1.54-2.06,2.34-.14,.32,.24,.45,.49,.32,.82-.74,1.48-1.73,2.29-2.51,6.31-6.41,13.46-11.74,21.14-16.47,2.45,2.03,4.29,4.75,6.65,6.87,4.58,3.98,10.72,5.1,16.09,7.54,.54,.16,1.4,.7,1.79-.02,.03-.1,0-.2-.08-.27-.34-.24-.71-.4-1.07-.58-2.14-1.04-3.72-2.38-5.44-4.12-.6-.63-1.22-1.24-1.84-1.82,.88,.58,1.8,1.11,2.72,1.64,2.85,1.77,6.39,2.94,9.3,3.79,2.9,1.11,5.58,2.73,7.9,4.79,.54,.34,1.03,.96,1.66,1.03,1-.26,.14-.98-.23-1.38-3.11-2.98-5.8-6.45-9.21-9.06-1.98-1.41-3.85-2.39-5.63-3.91-1.92-1.42-3.56-3.26-5.58-4.53-2.61-1.57-5.68-1.87-8.22-3.06-.73-.34-1.28-.74-1.82-1.14,1.91-1.09,3.8-2.13,5.76-3.12l1.37,1.2c2.49,2.47,5.39,4.44,8.38,6.2,2.33,1.38,4.92,2.19,7.13,3.77,4.83,3.27,8.78,8.76,13.91,12.05,1.3,.84,2.53,1.78,3.85,2.57,.54,.25,1.3,.84,1.82,.24,.21-.44-.35-.7-.58-.96-.75-.71-1.52-1.43-2.18-2.24-3.38-4.17-6.44-8.7-10.61-12.06-4.42-3.71-9.07-7.16-14.26-9.63-1.92-.94-3.86-2.06-6.05-2.12-.25,0-.5-.01-.75-.05,1.85-.9,3.75-1.73,5.69-2.51,.6-.25,1.18-.47,1.78-.72,1.1,1.08,1.79,2.62,3.09,3.52,4.33,3.22,9.13,5.67,14.17,7.44,7.91,2.89,15.69,6.58,24.19,7.25,.7,.03,1.42,.31,2.12,.1,.98-.63-.76-.93-1.14-1.12-1.44-.53-2.45-.79-3.93-1.42-1.63-.87-3.19-1.86-4.78-2.83-4.17-2.56-8.32-5.24-12.86-7.05-4.74-1.79-9.36-2.81-13.86-5.07-1.35-.62-2.65-1.28-3.93-2.02,2.29-.87,4.56-1.69,6.89-2.43,.08,.27,.52,.45,.71,.67,1.62,1.38,3.62,2.16,5.45,3.19,2.87,1.72,5.57,3.74,8.59,5.18,4.71,1.96,9.28,3.61,14.36,4.67,3.19,.71,6.44,1.41,9.74,1.37,.55,.22,3.05,.03,2.18-.82h0Zm-67.89-2.1s.04,.04,.06,.08,.46,.64,.3,.44c.79,1.48,1.88,2.77,2.99,4,.2,.25,.4,.47,.61,.7-1.92-1.23-4.04-2.13-6.25-2.68-.49-.14-.88-.24-1.26-.38,1.17-.75,2.35-1.46,3.56-2.16h0Z"/>
    <path class="cls-15" d="M238.71,191.74c-3.13,2.28-5.98,4.29-9.17,6.25-4.08,2.59-8.58,4.34-12.73,6.78-4.04,2.27-7.54,5.27-11.37,7.85-2.03,1.45-4.56,2.83-6.81,4.46,.45-.79,.91-1.61,1.38-2.41,.31-.49,.6-1,.88-1.48,.85-.46,1.68-.96,2.5-1.49,1.82-1.15,3.64-2.35,5.35-3.67,3.87-3.07,7.64-6.3,11.05-9.83,3.51-3.77,5.81-7.94,8.95-11.66,1.05-1.22,2.3-2.38,3.36-3.49,.17-.2,.24-.53,.03-.62-.4,.02-.84,.37-1.26,.54-3.74,1.76-7.31,4-10.22,6.93-3.71,3.64-6.39,7.82-10.4,10.95-.9,.78-2.1,1.68-3.18,2.43,.65-1.66,1.28-3.34,1.81-5.01,.88-2.82,1.31-5.64,1.89-8.46,.79-4.12,1.96-8.3,2.15-12.36,.06-.58,.07-2.07-.82-.93-.91,1.61-1.67,3.26-2.67,4.85-6.38,8.78-10.01,18.72-9.8,27.9,.04,1.28,.14,2.55,.45,3.74,0,.07,.03,.15,.07,.21-.91,1.55-1.75,3.09-2.61,4.67-.04,.05-.05,.09-.09,.15-.32,.59-.64,1.17-.93,1.74-.18-.65-.39-1.36-.41-1.83-.17-1.54,.15-2.72,.28-4.32,.26-3.91-.29-7.78-2.21-10.85-1.69-2.79-2.91-5.47-3.67-8.78-1.57-2.27-1.78,13.31-1.81,14.04-.2,3.44,1.06,6.47,2.58,9.23,.86,1.38,2.02,2.77,2.53,4.13,.33,.66,.41,1.44,.65,2.13,.05,.02,.07,.04,.1,.04-.65,1.27-1.25,2.55-1.86,3.82-.01,.04-.04,.05-.05,.09-.28,.59-.56,1.18-.8,1.77-.04-.06-.11-.1-.14-.16-.25-.29-.46-.63-.6-.99-1.2-4-1.49-8.39-2.43-12.52-.49-2.18-1.03-4.37-2.15-6.24-.81-1.36-2.28-2.65-2.84-3.92-.56-1.5-.89-3.1-1.18-4.7-.09-.25-.11-1.66-.39-2.19-.7-.58-1,1.13-1.21,1.56-1.23,4.19-1.49,8.38-.84,12.25,.29,2.48,.68,4.96,1.73,7.13,1.69,3.84,5.22,7.01,6.85,10.59,.47,1.08,.77,2.22,.89,3.38,.02,.25,.19,.27,.34,.17-.71,1.68-1.36,3.34-1.99,5.02-1.56-1.42-2.34-3.8-3.09-6.03-.86-2.61-1.98-5.1-3.12-7.58-.84-1.69-1.76-3.34-3.09-4.69-2.14-2-4.66-3.55-6.46-5.61-.58-.67-1.08-1.4-1.51-2.17-.22-.33-.32-.81-.78-.93-.27-.01-.47,.31-.5,.54,0,.6,.25,1.14,.3,1.73,.27,1.9,.75,4.51,1.24,6.57,1.08,4.28,2.61,8.49,5.56,11.74,2.2,2.42,5.39,4.25,7.51,6.44,.91,.84,1.85,1.68,2.33,2.84,.03,.04,.05,.13,.04,.12,.08,.12,.08,.34,.25,.37,.03,0,.07-.01,.09-.03-.8,2.28-1.48,4.56-2.12,6.84-.22-.16-.52-.27-.71-.49-.45-.33-.99-1.01-1.43-1.62-1.03-1.53-1.61-3.27-2.65-4.93-1.73-3.28-5.04-5.34-8.01-7.58-3.33-2.42-7.21-4.16-10.85-6.2-.59-.36-1.15-.76-1.68-1.2l-.04-.06c-.47-.51-.98-.98-1.52-1.42-.21-.2-.62,.08-.66,.36-.13,.37,.24,.52,.42,.74,.37,.37,.77,.71,1.18,1.03,1.42,1.49,2.75,3.3,3.93,4.98,1.73,2.9,2.9,6.19,5.19,8.74,1.88,2.18,4.73,3.5,7.65,4.52,1.57,.48,2.84,.7,4.13,1.6,1.3,.75,2.33,1.5,3.15,2.49,.32,.43,.61,.88,.87,1.35,.05,.06,.12,.08,.2,.07,.08-.03,.15-.07,.21-.14-.45,1.61-.88,3.22-1.29,4.83-.14-.48-.33-.94-.59-1.37-.93-1.77-2.52-3.06-4.07-4.35-1.93-1.63-4.14-3.01-6.78-3.8-2.17-.7-4.55-1-6.78-1.57-2.5-.67-4.9-1.66-7.15-2.95-.11-.07-.22-.15-.31-.24-.24-.25-.49-.49-.75-.72-.95,.27-.62,.81,.22,1.44,1.74,1.73,3.44,4.09,5.51,5.65,3.11,2.2,6.88,3.73,10.84,4.79,2.23,.63,4.81,.6,6.6,1.58,1.07,.59,1.6,1.37,2.35,2.37,.12,.12,.15,.38,.42,.34l.05-.03s.06,.08,.11,.1c-1.78,7.39-2.92,14.79-2.86,21.96,.05,.91,.08,1.85,.2,2.74,.13,.25,.52,0,.61-.27,.07-1.01-.18-1.99-.15-3.01-.03-8.07,1.39-16.38,3.67-24.87,3.38-1.17,6.83-1.53,10.21-2.59,6.47-2.12,11.98-6.78,17.89-10.23,.53-.39,1.59-.88,1.35-1.51-.07-.07-.17-.09-.26-.05-.44,.18-.84,.43-1.26,.65-2.41,1.34-4.61,2.09-7.23,2.78-.93,.23-1.86,.48-2.76,.76,1.1-.49,2.2-1.03,3.3-1.57,3.5-1.62,7.06-4.09,9.92-6.16,2.99-1.93,6.22-3.46,9.61-4.55,.66-.3,1.5-.45,2.03-.95,.56-.95-.63-.54-1.21-.41-4.61,1.32-9.26,2.06-13.81,3.8-2.57,1.05-4.73,2.19-7.22,3.02-2.53,.99-5.15,1.57-7.65,2.72-3.16,1.51-5.72,3.95-8.54,5.57-.72,.4-1.47,.74-2.24,1.03,.63-2.08,1.28-4.12,2.03-6.19l1.95-.63c3.75-1.02,7.43-2.59,11.03-4.34,2.81-1.36,5.38-3.18,8.24-4.34,6.13-2.63,13.25-3.56,19.62-6.44,1.62-.72,3.27-1.35,4.86-2.11,.6-.34,1.62-.72,1.56-1.42-.17-.37-.79,0-1.16,.07-1.1,.32-2.23,.65-3.34,.86-5.7,1.03-11.43,1.62-17.12,3.67-6.15,2.1-12.28,4.5-18.07,7.79-2.16,1.2-4.48,2.34-6.19,4.15-.19,.21-.39,.42-.61,.61,.72-1.94,1.55-3.89,2.44-5.86,.27-.61,.55-1.2,.81-1.8,1.65-.46,3.33-.37,5-1.07,5.71-2.24,11.2-5.2,16.36-8.65,8.18-5.38,16.86-10.3,23.83-17.15,.55-.57,1.32-1.06,1.69-1.74,.28-1.1-1.27,.23-1.71,.47-1.49,.98-2.45,1.71-4.06,2.68-1.89,.99-3.82,1.87-5.76,2.78-5.09,2.38-10.26,4.7-15.07,7.72-4.95,3.2-9.22,6.63-14.33,9.42-1.49,.86-2.98,1.67-4.5,2.41,1.08-2.3,2.19-4.56,3.4-6.83,.26,.05,.74-.24,1.04-.3,2.27-.76,4.38-2.1,6.54-3.19,3.47-1.66,7.05-3.05,10.42-4.96,5.06-3.1,9.76-6.22,14.42-10.02,2.96-2.37,5.95-4.79,8.43-7.57,.58-.36,2.34-2.55,1.05-2.19h0Zm-53.15,56.03s.06-.02,.1-.01,.83-.11,.56-.06c1.72-.02,3.51-.38,5.27-.77,.34-.06,.66-.13,.99-.21-2.41,1.09-4.68,2.46-6.76,4.08-.48,.35-.85,.63-1.24,.89,.32-1.3,.69-2.6,1.08-3.92h0Z"/>
    <path class="cls-20" d="M48.04,264.24c-.5-2.23,.39-4.8,2.02-6.34l.49-.41c-.4-.27-.85-.55-1.18-.94-.6-.65-.86-1.54-.87-2.42,.02-.64,.27-1.26,.69-1.74,.37-.42,.87-.73,1.32-1.06,.72-.66,1.65-1.06,2.56-.83,.45-1.43,1.67-2.29,3.68-1.99,1.57,.23,3.12,1.41,3.09,3.09,.07,.94-.38,1.98-.09,2.72,.34,.93,1.64,1.49,2.13,.36,.41-.9,.04-1.86-.64-2.67-1.37-1.56-3.28-2.99-2.6-5.33,1.13-3.65,7.23-4.42,8.89-.79,.08,.15,.13,.3,.17,.46t.09-.02c0-.31,.03-.62,.11-.92,.21-.73,.57-1.36,.62-2.02,.08-.62-.12-1.06-.5-1.51-.72-.72-2-1.46-2.23-2.71-.11-.52,.01-1.17,.45-1.43,.41-.23,1.13-.17,1.23,.41,.03,.3-.2,.55-.45,.65-.12,.05-.36-.03-.34-.21,.04-.09,.16-.14,.19-.16l.06-.05c.18-.37-.1-.58-.45-.34-.53,.55-.24,1.69,.45,2.38,.38,.45,1.1,.85,1.53,1.42,.32,.45,.57,1.01,.49,1.57-.07,.77-.59,1.66-.68,2.28,0,.17-.03,.34-.07,.5,.31-.12,.63-.2,.95-.25,1.48-.08,3.03,.71,3.76,2.04,.4,.67,.68,1.41,.83,2.17,.76-.08,1.62-.31,2.41-.15,.06,0,.15,.04,.21,.05-.1-.19-.18-.35-.28-.53-2.13-4.84-3.27-10.07-5.5-14.88-.22-.53-.48-1.03-.73-1.59-.06,.05-.16,.14-.17,.2-.53,.55-1.04,1.26-1.79,1.56-.78,.27-1.64,.12-2.28-.41-.39-.33-.63-.74-.95-1.13-.44-.52-1.06-.93-1.66-1.25-.9-.41-1.95-.74-2.47-1.62-.4-.6-.61-1.31-.73-1.98-1.85,.56-3.87,.72-5.46-.38-.12,.05-.28,.13-.29,.19-.74,.48-1.53,.88-2.36,1.21-2.93,1.25-6.2-.15-6.98-3.31-.04-.24-.11-.52-.14-.76-1.41-.03-2.03-1.17-2.43-2.49-.18-.74-.14-1.48-.29-2.25-.06-.39-.17-.85-.27-1.37-.94,.79-2.01,2.41-3.37,1.51-2.11-1.65-2.3-5.03-.73-7.12-.32-.1-.64-.18-.97-.23-.29-.09-1.35,.03-1.91-.11-1.27-.2-1.12-1.6-.6-2.42,.89-1.57,2.25-2.83,3.88-3.6,.09-.02,.16-.08,.25-.1-.08-.16-.15-.37-.2-.5-.11-.46-.07-.94,.12-1.37,1.09-2.25,4.32-1.76,6.59-1.23-.21-1.24,.14-2.51,.96-3.46,1.32-1.39,3.5-2.61,5.33-1.61,.76-.47,1.72-.45,2.57-.17,.66,.21,1.28,.53,1.84,.94,.11,.07,.2,.17,.31,.24-.46-1.27-.86-2.54-1.35-3.78-.12-.02-.24-.08-.31-.18-.46-.88-1.02-1.08-1.82-1.51-1.44-.67-2.59-.91-4.23-1.42-1.61-.47-3.18-1.03-4.75-1.64-.63,.7-1.33,1.18-1.95,1.75-.53,.55-.71,1.32-1.02,2.07-.48,1.07-1.18,2.15-2.27,2.63-.78,.35-1.65,.46-2.49,.32-.06,0-.09-.04-.12-.01,0,.06-.03,.12-.08,.17-.47,.95-1.12,1.88-2.09,2.31-.85,.44-2.23,.44-2.93,.59-1.16,.26-1.92,1-3.12,1.41-1.05,.39-2.31,.34-3.28-.28-.88-.53-1.36-1.68-1.03-2.67,.13-.37,.32-.72,.57-1.03-.34-.26-.66-.54-.95-.86-.85-.88-1.04-2.16-.24-3.17,.33-.39,.96-1.03,1.11-1.37,.62-.97,.22-2.17,.44-3.35,.39-1.71,1.7-3.03,3.27-3.74-.65-1.11-.12-2.38,.41-3.39,.3-.69,.27-1.39-.06-2.11-.39-.72-.7-1.29-.2-1.88-.23-.14-.42-.31-.68-.48-.79-.55-1.33-1.65-.95-2.57,.23-.58,.72-.99,1.14-1.4,.5-.57,.85-1.25,1.04-1.98,.19-.76,.29-1.63,.89-2.35,1.53-1.67,4.73-2.32,6.31-.38,.73,.93,.69,2.46,1.83,2.77,.12,.02,.25,.01,.36-.03-.91-1.22-1.41-2.73-2.67-3.5-.94-.59-2.24-1.21-2.98-2.3-.39-.66-.58-1.61-.19-2.33,.35-.57,1-.84,1.6-1.18l.1-.08c-.35-.35-.7-.7-1.05-1.05l-.03,.03c-.61,.42-1.44,.3-1.9-.28-.27-.32-.41-.49-.69-.69-.07-.05-.15-.08-.23-.08-.42-.04-.76,.08-1.27,.07-1.53-.04-1.87-1.63-1.26-2.81,.21-.4,.54-.67,.89-.91-.24-.29-.52-.56-.77-.85-.06,.05-.19,.1-.25,.16-.77,.53-1.01,1.62-1.22,2.69-.21,1-.78,2.09-1.83,2.42-1.42,.48-2.98-.26-3.87-1.39-.59-.77-.94-1.64-1.8-2.08-.28-.2-1.22-.47-1.68-.75-.52-.29-.92-.76-1.12-1.33-.1-.28-.15-.58-.13-.88l-.06,.05c-.42,.47-.69,1.05-.8,1.67-.09,.68,.21,1.37,.5,1.84,.5,.85,1.54,2.02,.79,2.98-.4,.51-1.06,.45-1.63,.49-.03,.03,0,0,.06,0-.69-.03-1.27,.4-1.34,.9-.07,.44,.5,.46,.92,.17l.13-.11c.09,.04-.18-.02-.21-.05-.17-.13,.03-.3,.2-.28,.27,0,.65,.18,.47,.49-.21,.34-.64,.48-1,.51-1.15,.08-1.24-.95-.43-1.57,.62-.52,1.65-.34,2.08-.42,.83-.26,.6-1.33,.17-1.97-.72-1.05-1.54-2.35-.97-3.66,.23-.52,.49-1.13,1.02-1.41-.03-.04-.07-.06-.11-.07-.4-.27-.56-.41-.97-.56-.9-.41-2.46,.3-3.88,.05-1.46-.16-2.8-1.62-2.4-3.12,.29-.97,1.14-1.67,2.02-2.14-1.1-.79-2.58-.76-3.74-1.82-.83-.85,.65-1.32,1.25-1.6,.47-.23,1.46-.89,2.24-.89,.09-.02,.18,.02,.27,0l-.03-.03c-.06-.34-.08-.76,.15-1.07,.99-1.33,4.45-.82,6.01,.31l-.03-.03c-.44-.82-.57-1.77-.37-2.67,.66-1.78,2.4-2.91,4.29-2.78h.06c-.3-.23-.59-.49-.86-.76-.47-.42-.98-.78-1.53-1.09-1.86-1.03-4.08-1.43-5.76-2.78-.39-.33-.93-1.04-.44-1.51,.42-.29,.97-.16,1.45-.11,.98,.17,2.15,.19,3.04-.13,1.08-.3,2.12-.9,3.28-.77,.12-.1,.22-.23,.3-.36,1.17-1.43,3.14-1.59,4.89-1.68,1.21-.08,2.19-.35,3.14-.87,2.05-1.11,3.96-3.05,6.42-3.08,1.11,0,2.16,.55,2.78,1.47,.75,1.09,.51,2.72-.81,3.17-1.6,.46-2.38-1.59-3.71-1.91-.15-.04-.59-.11-.81-.04-.29,.1-.55,.25-.79,.44-.32,.27-.59,.61-.94,.79,.08,.1,.13,.22,0,.45-.47,.56-1.28,.58-1.88,.92-.75,.36-1.64,1.21-2.28,2.08-.58,.76-1.05,2.1-1.58,3.04-.44,.8-1.04,1.49-1.77,2.04-.14,.1-.29,.19-.44,.26,0,.66,.04,1.29,.05,1.89,.03-.03,.09-.02,.12-.05,.28-.09,.54-.22,.78-.38,.76-.47,1.42-1.2,2.31-1.39,.52-.11,1.08-.03,1.51,.28,.4,.27,.75,.75,.76,1.24,.11,.85-.41,1.62-.86,2.33-.21,.4-.37,.81-.3,1.08,.09,.22,.25,.39,.47,.49,.35,.09,.75-.02,1.33-.12,.12-.03,.24-.04,.36-.03l.02-.24c.05-1.26,.97-2.2,2.23-2.15,2.62-.1,4.54,4.08,1.19,4.64-.49,.08-1.03,.15-1.51,.11,.05,.32,.08,.64,.1,.97,.18,.09,.34,.22,.48,.37,.44,.46,.48,1.09,.42,1.69-.07,.86-.48,1.65-1.12,2.21-.74,.63-1.62,.64-2.15,1.31-.23,.25-.31,.75-.24,1.09,.11,.46,.31,.96,.33,1.44,.02,.31-.01,.62-.11,.92l.82,.97,.1-.08c.62-.42,1.22-.87,1.8-1.35,1.14-1.07,1.87-2.18,2.5-3.6,.15-.35,.3-.69,.42-1.01-1.24-2.33,1.11-3.09,.98-5.41-.02-.49-.08-.98-.17-1.46-.35-.46-.56-1.01-.61-1.58-.03-.69,.15-1.34-.07-1.93-.19-.62-.56-1.19-.5-1.84,.02-.96,1.14-1.07,1.87-.8,1.4,.42,2.55,1.45,3.31,2.63,.5,.79,.85,1.66,.92,2.6,0,.06,.02,.09-.01,.12,.34-.07,.68-.18,.99-.33,.06,0,.6-.4,.88-.4,.41-.04,.83,.06,1.18,.28,.87,.71,1.13,1.87,1.58,2.87,.76,1.63,1.51,3.37,1.26,5.24-.02,.18-.06,.33-.07,.5,.47-.02,.94,.03,1.4,.15,.64,.24,1.27,.53,1.71,1.05,.37,.61,.39,1.36,.07,1.99-.47,.89-1.22,1.25-1.82,1.91-.79,.77-.75,2.13-1.44,3.15-.48,.74-1.08,1.41-1.84,1.88-.06,.05-.19,.1-.25,.16,.05,.06,.08,.16,.13,.22,.15,.37,.32,.84,.46,.88,.5,.13,1.33-.46,2.16-.32,1.3,.23,2.31,1.43,2.37,2.76-.01,1.17-.79,2.21-1.28,3.01-.15,.23-.28,.48-.37,.75,1.74,.36,3.36,1.1,4.69,2.3,.83,.79,1.77,1.77,1.81,3.01-.08,1.28-1.46,1.94-2.09,2.97-.28,.46-.38,1.26-.22,1.84,.22,1.13,.6,2.22,1.13,3.25,.58,1.22,1.35,2.46,1.26,3.86-.04,.46-.17,.91-.38,1.32-.04,.09-.11,.2-.14,.29,.68,1.47,1.34,2.91,1.96,4.43,1.04,2.55,1.93,5.12,2.84,7.72,.07,0,.14,0,.21-.01,1.89-.05,4.41,1.37,3.87,3.55-.1,.58-.31,1.13-.62,1.63-.03,.03-.07,.11-.1,.14,.48,.33,.91,.73,1.28,1.19,.85,1.27,.99,3.09,.25,4.43-.16,.26-.35,.5-.54,.73l-.13,.11c.37,.96,.73,1.92,1.13,2.86,1.67-.25,2.14,.91,3.11,1.86,.47,.49,.99,.66,1.37,.45,.53-.28,.59-.94,.38-1.32-.49-.58-1.58-.77-2.39-1.14-.67-.27-1.31-.77-1.61-1.46-.29-.8-.33-1.68-.11-2.5,.21-1.06,1.52-3.65,2.85-3.45,.12-.49,.38-.94,.74-1.29,1.18-1.1,3.1-1.5,4.53-.66,.4,.21,.8,.49,1.04,.84,.26,.45,.43,.96,.47,1.48,.03,.09,.03,.18,0,.27,.19,0,.38,0,.57,.02,.86,.16,2,.8,2.61,1.01,.73,.21,1.53,.31,2.15,.79,1.52,1.21,1.62,3.17,.72,4.81-.14,.29-.32,.54-.46,.77,1.01,.48,1.99,.98,3,1.46,1.95,1.07,2.93,2.51,2.12,4.24,1.64,1.16,2.79,3.45,1.73,5.34-1.04,1.59-3.18,2.07-4.31,3.29-.5,.53-.96,1.09-1.59,1.39-.52,.21-1.08,.29-1.64,.22-.06,.05-.13,.17-.2,.22-.62,.52-1.48,.47-2.21,.26-1.12-.28-1.89-1.45-2.78-1.92-.26-.11-.66-.06-.91,.1-.5,.26-.98,.61-1.53,.74,.69,1.41,1.37,2.88,2,4.35,2.2,4.78,3.28,10.01,5.47,14.79,.7,1.62,1.72,3.03,2.85,4.57,.07-.44,.2-.88,.5-1.25,.6-.73,1.36-1.2,1.76-1.98,.57-1.03,.47-2.33,1.21-3.29,1.28-1.63,3.86-1.26,5.21,.09,.76,.64,.99,1.44,1.03,2.28,1.44-.99,2.93-1.91,4.65-2.09,1.46-.17,3.3,.38,3.9,1.81,.23,1.19-.61,2.23-1.09,3.24-.35,.63-.53,1.27-.68,1.95h.06c1.25,.11,2.54,.19,3.8,.12,1.26-.01,2.7-.34,3.87,.34,.8,.43,1.23,1.4,.83,2.23-.89,1.9-3.43,2.55-5.39,2.59-2.1,0-3.75-.05-5.4,1.39-.52,.5-1.33,1.51-2.02,2.14-.82,.8-1.73,1.56-2.79,2.07-.11,.03-.22,.08-.31,.15,1.52,1.87,3.03,3.8,4.42,5.79,.19,.29,.43,.58,.58,.89,.04,.18-.18,.31-.36,.36-.55,.07-.74-.48-.98-.84-.66-.99-1.42-1.95-2.15-2.89-2.43-3.15-4.99-6.14-7.39-9.31-2.06-2.85-4.38-5.6-6.16-8.64-.42,.29-.88,.46-1.27,.79-.58,.43-1.33,1.45-1.34,2.29-.17,1.25,.17,2.57,.69,3.51,.52,.89,1.14,1.36,2.05,1.32,.18,.02,.59-.28,.46-.5-.14-.16-.22-.2-.49-.19-.15,.02-.28-.2-.13-.28s.3-.03,.45-.05c.68,.15,.95,.8,.26,1.16-.6,.34-1.39,.12-1.97-.17-1.22-.86-1.74-2.4-1.83-3.82-.16-1.36,.43-2.7,1.53-3.5,.38-.27,.76-.47,1.17-.71-.8-.16-1.66,.13-2.66,.19-.21,.01-.42-.04-.63-.02l.05,.06c.11,.13,.45,.67,.51,1.01,.51,1.78-1.53,2.39-2.91,2.45-1.45,.11-2.79-.42-3.97,.08-.45,.15-.87,.39-1.23,.7,.43,.25,.89,.47,1.32,.71,1.38,.72,2.75,1.56,3.53,2.95,.94,1.58,1.44,3.49,.95,5.28-.25,1.21-.96,2.47-2.21,2.96-.98,.28-1.65-.05-2.1-.72,.26,2.15-.14,4.7-1.68,6.22-1.12,1.1-2.85,2.06-4.41,1.33-.72-.32-1.32-.86-1.73-1.53-.47-.82-.61-1.58-1.31-2.15-.51-.34-1.02-.3-1.64-.5-.76-.3-1.34-.94-1.56-1.73-.09-.37-.15-.7-.21-1.1-.46,.11-.95,.25-1.53,.35-1.16,.26-2.04-.72-2.98-1.25-.57-.41-1.9-.95-2.2-2.02h0Zm-10.35-73.95l.06-.05c.15-.02,.25-.16,.33-.33,.25-.43,.43-.9,.54-1.39,.17-.92,.08-1.94-.46-2.71s-1.36-.96-2.18-.49c-.57,.31-1.61,.58-1.45,1.44,.45,1,1.54,1.57,2.13,2.47,.18,.21,.33,.43,.45,.67,.16,.25,.25,.56,.56,.41h0Zm-1.61-26.88c.35-.57,1.26-1.06,1.61-1.3,.39-.39,.67-.78,.8-1.22-1.31-.83-3.09-1.11-4.3-.91-.67,.12-1.05,.72-1.43,1.26,.97,.95,1.93,1.97,2.87,2.95,.11-.28,.27-.54,.46-.77h0Zm-3.67,.49c-1.02,.69-.71,2.31,.27,3.14,.8,.82,2.32,1.31,3.22,2.32,.58,.62,.87,1.37,1.35,2.07,.1,.19,.35,.48,.48,.7,.48-.36,.57-1.04,.21-1.52-.02-.03-.05-.06-.07-.09-.13-.17-.31-.31-.51-.4,.11,.19,.17,.4,.19,.62,.03,.09,.03,.18,0,.27-.1,.14-.46,.11-.44-.07-.05-.51-.35-1.14-.85-1.6-.59-.77-2.62-1.34-2.34-2.78,.11-.59,.45-1.04,.87-1.4l.26-.22c-.52-.56-1.04-1.11-1.54-1.63-.35,.18-.78,.32-1.1,.59h0Zm-15.97-19.06c.39,1.05,.27,2.48,1.15,3.01,.26,.11,.31-.09,.23-.58-.04-.57-.37-1.23-.81-1.75-.16-.25-.38-.45-.57-.68Zm22.26,6.7c-.27-.05-.72,0-.75,.36-.05,.54-.03,1.08,.2,1.55,.1,.19,.17,.46,.41,.43l.03-.03c.02,.09,.17,.13,.26,.11,.21-.01,.26-.22,.3-.36,.16-.47,.33-1.05,.1-1.52-.05-.28-.27-.49-.55-.53Zm8.96,57.05c.24,.74,1.02,1.74,1.74,1.8,.82-.14,.35-1.56-.19-2.27-.34-.54-1.14-1.09-1.71-1.44,0,.66,0,1.32,.17,1.91h0Zm12.4,3.38c-.66,.39-1.49,.53-2.23,.5,.05,1.17,.04,2.34-.51,3.41-.71,1.26-2.23,2.21-3.34,.76-.16-.19-.29-.42-.43-.58-.61,.13-1.24,.1-1.7,.27-1.07,.57-.84,2.03,.3,2.46,.81,.31,1.7,.51,2.33,1.19,.38,.45,.66,.99,1.08,1.41l.14,.16v-.06c-.03-.63-.53-1.49-.46-2.26,.2-1.66,1.8-2.73,3.15-3.42,.75-.36,1.26-1,2.06-1.29,.18-.04,.4-.12,.58-.16-.34-.87-.67-1.65-.96-2.39h0Zm25.74,49.74c.22,.25,.43,.52,.62,.8h.12c.33,.07,.62,.09,.81,.05,.4-.06,1.03-.42,1.06-.78,.07-.83-.97-1.23-1.75-1.23-.18-.02-.77,.2-.96,.31-.12,.05-.22,.13-.38,.21,.15,.23,.31,.44,.49,.64h0Z"/>
    <path class="cls-2" d="M122.45,80.47c.16-.26,.51-.56,.9-.88,1.15-.94,2.8-1.94,2.96-2.04,2.5-1.65,5.13-3.16,7.66-4.8,1.09-.71,2.17-1.44,3.21-2.22,.34-.26,2.59-1.79,3.07-2.88,.12-.26,.16-.55,.1-.82-.08-.3-.29-.55-.57-.69-.52-.29-1.25-.37-2.05-.31-1.49,.11-3.26,.71-4.17,.96-3.01,.82-5.97,1.8-8.88,2.94-2.92,1.13-5.79,2.37-8.6,3.65-8.02,3.63-15.92,7.55-23.56,11.81-7.75,4.32-15.23,8.99-22.3,14.07-3.23,2.32-6.79,4.79-9.85,7.58-2.16,1.97-4.07,4.09-5.46,6.42-.21,.36-.09,.82,.26,1.03,.36,.21,.82,.09,1.03-.26h0c1.3-2.22,3.11-4.23,5.15-6.11,3.01-2.77,6.5-5.23,9.67-7.53,7.01-5.09,14.43-9.77,22.11-14.11,7.59-4.28,15.44-8.22,23.42-11.87,2.79-1.28,5.63-2.52,8.53-3.65,2.87-1.13,5.8-2.11,8.77-2.93,.76-.2,2.13-.68,3.42-.87,.78-.12,1.52-.15,2.02,.12,.14,.08,.03,.2-.06,.34-.21,.31-.45,.58-.73,.83-.76,.71-1.72,1.34-1.92,1.5-1.02,.76-2.08,1.49-3.15,2.19-2.53,1.64-5.15,3.16-7.65,4.81-.21,.14-2.77,1.7-3.82,2.81-.21,.21-.38,.46-.5,.74-.16,.44-.04,.78,.35,1,.76,.42,2.11,.43,3.66,.16,2.82-.48,6.35-1.75,7.66-2.09,6.14-1.58,12.29-3.17,18.51-4.51,4.11-.89,8.27-1.67,12.46-2.28,14.77-2.12,30.66-2.65,46.34-1.37,15.74,1.29,31.29,4.4,45.27,9.52,.39,.14,.82-.06,.96-.45,.14-.39-.06-.82-.45-.96h0c-14.12-5.08-29.8-8.13-45.68-9.36-15.77-1.21-31.75-.63-46.6,1.57-4.21,.62-8.39,1.42-12.53,2.33-6.22,1.36-12.38,2.96-18.53,4.55-1.3,.34-4.79,1.6-7.58,2.07-1.17,.2-2.2,.28-2.84,.02h0Zm164.61,185.37c4.47-.71,9.04-2.19,13.27-4.32,4.23-2.13,8.13-4.9,11.2-8.26,2.91-3.11,5.01-7.03,7.73-10.36,1.13-1.39,2.38-2.68,3.84-3.76,1.46-1.08,3.09-1.8,4.8-2.29,1.72-.5,3.54-.75,5.34-.9,.41-.04,.71-.41,.67-.82-.04-.41-.4-.71-.81-.67-1.9,.2-3.79,.53-5.6,1.09-1.84,.57-3.58,1.4-5.15,2.61-1.51,1.17-2.8,2.55-3.97,4.04-2.65,3.36-4.71,7.27-7.57,10.39-3.03,3.23-6.84,5.9-10.99,7.89-4.1,1.96-8.47,3.27-12.97,3.88-.41,.05-.7,.42-.65,.83,.05,.41,.42,.7,.83,.65,.01,0,.02,0,.04,0h0Z"/>
    <path class="cls-11" d="M164.13,200.1c7.52,18.78,33.33,48.62,56.52,48.61,33.5,0,69.36-87.72,69.36-87.72,13.54-9.22,5.25-22.02-.87-32.75l-9.32,23.01s-40.32,56.4-57.7,53.86c-17.38-2.54-36.92-68.25-46.58-69.08s-18.93,45.3-11.41,64.08Z"/>
    <g class="cls-18">
      <path class="cls-1" d="M262.06,153.49c-17.72-22.87-28.32-55.47-58.11-65.64-20.9-7.14-39.69,3.66-51.53,20.94-18.43,26.9-24.39,65.5-13.7,96.42,15.35,44.39,67.35,59.38,108.24,42.13,12.67-5.35,25.27-13.36,32.29-25.56,5.25-9.11,10.2-27.14,.97-35.85-3.04-2.88-8.17-1.66-10.78-4.98-1.99-2.52-1.01-5.87-2.17-8.68-1.88-4.61-9.01-5.64-13.36-5.09l8.13-13.68Z"/>
    </g>
    <path class="cls-8" d="M161.13,224.01c10.73-13.04,27.08-69.12,18.72-84.86-8.36-15.74-52.7-32.51-68.89-9.56-14.23,20.17-3.83,72.09,4.53,87.83,7.21,13.58,35.88,18.46,45.64,6.59Z"/>
    <path class="cls-3" d="M157.71,153.9c-1.18-3.11-4.65-4.68-7.76-3.51l-84.55,31.91c-3.11,1.17-4.68,4.65-3.5,7.76,0,0,0,0,0,0l49.9,132.21c1.17,3.11,4.64,4.68,7.75,3.51l84.55-31.91c3.11-1.18,4.68-4.65,3.51-7.76l-49.9-132.21Z"/>
    <path class="cls-12" d="M93.9,195.38c-.31-.81-1.22-1.23-2.03-.92l-14.55,5.49c-.81,.31-1.22,1.22-.92,2.03h0c.31,.82,1.22,1.23,2.03,.92l14.55-5.49c.81-.31,1.22-1.22,.92-2.03h0Zm-2.29-6.06c-.31-.81-1.22-1.23-2.03-.92l-14.55,5.49c-.81,.31-1.22,1.22-.92,2.03h0c.31,.82,1.22,1.23,2.03,.92l14.55-5.49c.81-.31,1.22-1.22,.92-2.03h0Z"/>
    <path class="cls-3" d="M157.46,153.23c-1.03-2.74-4.09-4.12-6.83-3.09,0,0,0,0,0,0l-85.88,32.41c-2.74,1.03-4.12,4.09-3.09,6.83,0,0,0,0,0,0h0c1.03,2.74,4.09,4.12,6.83,3.09,0,0,0,0,0,0l85.88-32.41c2.74-1.03,4.12-4.09,3.09-6.83,0,0,0,0,0,0h0Z"/>
    <path class="cls-7" d="M134.82,229.73c-.11,.01-.22-.05-.26-.16l-10.44-27.65c-.95-2.52-3.77-3.8-6.29-2.84h0c-2.52,.95-3.79,3.77-2.84,6.29,0,0,0,0,0,0l10.52,27.87h0s0,0,0,0l-.46,.17c-.26,.1-.56-.01-.69-.26-1.3-2.53-7.9-15.37-11.25-21.89-1.08-2.11-3.67-2.94-5.78-1.86,0,0,0,0,0,0t0,0c-2.11,1.08-2.94,3.67-1.86,5.78,0,0,0,0,0,0,2.22,4.32,5.89,11.46,8.75,17.02,2.74,5.34,5.18,10.83,7.3,16.45,0,0-3.98-4.05-7.09-7.23-2.02-2.06-5.32-2.09-7.38-.07h0c-2.04,2.01-2.07,5.29-.07,7.33,.01,.01,.02,.02,.03,.03,3.49,3.5,8.88,8.89,13.61,13.62,5.94,5.95,14.81,7.86,22.67,4.89,11.16-4.21,16.79-16.67,12.58-27.82l-1.81-4.79s-1.81-18.69-2.65-27.32c-.23-2.36-2.33-4.09-4.69-3.86h0c-2.36,.23-4.09,2.33-3.86,4.69,.63,6.44,1.74,17.9,1.74,17.9l-.09,.03c-.18,.02-.35-.09-.4-.27-.65-2.48-4.26-16.32-6.21-23.8-.69-2.65-3.4-4.23-6.04-3.54h0c-2.65,.69-4.23,3.4-3.54,6.04,0,0,0,0,0,0,2.21,8.47,6.58,25.2,6.58,25.2l-.06,.02Z"/>
    <path class="cls-12" d="M189.66,263.94l3.75,9.95c1.17,3.09-.39,6.55-3.49,7.71l-10.5,3.96-.98-2.59,10.5-3.96c1.66-.63,2.5-2.48,1.88-4.14,0,0,0,0,0,0l-3.75-9.95,2.59-.98Zm-76.76,28.97l3.75,9.95c.62,1.66,2.48,2.5,4.14,1.87,0,0,0,0,0,0l10.5-3.96,.98,2.59-10.5,3.96c-3.09,1.17-6.55-.39-7.71-3.49l-3.75-9.95,2.59-.98Zm-18.05-88.72l.98,2.59-10.5,3.96c-1.66,.63-2.5,2.48-1.87,4.14,0,0,0,0,0,0l3.75,9.95-2.59,.98-3.75-9.95c-1.17-3.09,.39-6.55,3.49-7.71l10.5-3.96Zm47.16-17.8l10.5-3.96c3.09-1.17,6.55,.39,7.71,3.49l3.75,9.95-2.59,.98-3.75-9.95c-.63-1.66-2.49-2.5-4.15-1.87,0,0,0,0,0,0l-10.5,3.96-.98-2.59ZM11.14-9.94"/>
    <path class="cls-5" d="M144.85,260.02c-1.19,.74-2.52,1.21-3.92,1.39-.43,.05-.74,.44-.69,.87,.05,.43,.44,.74,.87,.69,0,0,.01,0,.02,0,1.62-.2,3.17-.75,4.55-1.61,.37-.23,.48-.72,.24-1.09-.23-.36-.71-.47-1.08-.25h0Zm4.67-6.3c-.43,1.36-1.08,2.64-1.93,3.77-.26,.35-.19,.84,.16,1.1,.35,.26,.84,.19,1.1-.16,.96-1.28,1.69-2.72,2.17-4.24,.13-.42-.1-.86-.52-.98-.41-.13-.84,.1-.98,.5Zm-12.3,7.46c-1.38-.34-2.7-.91-3.89-1.68-.37-.23-.85-.13-1.09,.24-.23,.37-.13,.85,.24,1.09,1.34,.87,2.82,1.5,4.37,1.89,.42,.1,.85-.16,.95-.58,.1-.42-.16-.84-.58-.95h0Zm12.69-15.53c.28,1.42,.38,2.86,.3,4.31-.02,.43,.31,.81,.74,.83,.43,.02,.8-.31,.83-.74,.08-1.57-.03-3.15-.33-4.7-.08-.43-.49-.71-.91-.63-.43,.08-.71,.49-.63,.91,0,0,0,.01,0,.02h0Zm-19.52,11.39c-.99-1.05-1.85-2.23-2.55-3.49-.21-.38-.68-.52-1.06-.31,0,0,0,0,0,0-.38,.21-.52,.69-.31,1.07,.76,1.38,1.69,2.66,2.77,3.81,.3,.32,.79,.33,1.11,.04,.31-.3,.33-.79,.04-1.11h0Zm16.25-18.84c.86,1.16,1.58,2.42,2.15,3.76,.17,.4,.63,.59,1.03,.42,.4-.17,.59-.63,.42-1.03-.61-1.45-1.4-2.82-2.33-4.08-.27-.35-.76-.41-1.11-.14-.34,.26-.41,.74-.16,1.08h0Zm-20.3,11.8c-.43-1.38-.69-2.81-.78-4.25-.03-.43-.4-.76-.83-.74s-.76,.4-.74,.83c.1,1.57,.38,3.12,.85,4.63,.13,.42,.57,.65,.99,.52,.41-.13,.64-.57,.51-.98,0,0,0,0,0,0h0Zm14.04-16.83c1.32,.56,2.55,1.31,3.64,2.24,.33,.28,.83,.24,1.11-.1s.24-.83-.1-1.11c-1.21-1.03-2.58-1.87-4.04-2.49-.4-.17-.86,.02-1.03,.42-.17,.4,.02,.86,.42,1.03h0Zm-14.59,8.75c.24-1.41,.7-2.77,1.36-4.04,.21-.38,.06-.86-.32-1.07s-.86-.06-1.07,.32c0,0,0,0,0,.01-.73,1.41-1.25,2.93-1.52,4.5-.07,.43,.21,.84,.64,.91,.43,.07,.83-.21,.91-.64h0Zm6.72-8.98l.11-.04c1.31-.49,2.72-.7,4.11-.6,.43,.02,.8-.31,.83-.74,.02-.43-.3-.79-.72-.83-1.57-.11-3.15,.11-4.63,.65l-.14,.05c-1.38,.52-2.64,1.31-3.72,2.31-.32,.3-.34,.79-.04,1.11,.3,.32,.79,.34,1.11,.04h0c.9-.84,1.95-1.5,3.09-1.95h0Zm8.95,21.42c-.21,.11-.42,.2-.63,.28-2.33,.88-4.9,.26-6.88-1.36-.34-.27-.83-.23-1.1,.11-.27,.34-.23,.83,.11,1.1,2.42,1.99,5.57,2.7,8.43,1.62,.27-.1,.53-.22,.79-.35,.39-.19,.55-.67,.36-1.05-.19-.39-.67-.55-1.05-.36,0,0,0,0-.01,0h0Zm2.99-10.34c.05,.11,.09,.22,.13,.34,1.01,2.68,.74,5.48-.53,7.56-.23,.37-.11,.86,.26,1.08s.86,.11,1.08-.26h0c1.5-2.46,1.86-5.78,.66-8.94-.05-.13-.1-.26-.16-.39-.17-.4-.62-.59-1.03-.43-.4,.17-.59,.62-.43,1.03,0,0,0,0,0,.01h0Zm-12.79,6.37c-.17-.32-.31-.65-.44-.99-.91-2.42-.77-4.94,.2-6.94,.19-.39,.03-.86-.37-1.05-.39-.19-.86-.03-1.05,.37-1.15,2.36-1.33,5.34-.25,8.19,.15,.39,.32,.78,.51,1.15,.2,.39,.68,.53,1.06,.33,.38-.2,.53-.67,.34-1.05h0Zm3.23-11.24l.08-.03c2.55-.96,5.37-.13,7.4,1.84,.31,.3,.81,.29,1.11-.03,.3-.31,.29-.8-.02-1.1-2.45-2.37-5.84-3.33-8.92-2.24l-.14,.05c-.54,.21-1.06,.47-1.55,.79-.36,.24-.46,.73-.22,1.09,.24,.36,.73,.46,1.09,.22,.36-.24,.75-.44,1.15-.6h0Zm4.54,7.67c-.43,.23-.87,.44-1.33,.61-.57,.22-1.15,.38-1.75,.49-.43,.07-.72,.48-.64,.91,.07,.43,.48,.72,.91,.64,.7-.12,1.38-.31,2.04-.57,.53-.2,1.04-.43,1.53-.71,.38-.21,.52-.69,.31-1.07-.21-.38-.69-.52-1.07-.31h0Zm-1.92-.42l.18-.07c1.13-.43,2.2-.63,2.91-.56,.43,.04,.82-.27,.86-.7,.04-.43-.27-.82-.7-.86,0,0-.01,0-.02,0-.86-.08-2.13,.12-3.48,.61l-.13,.05c-1.17,.44-2.16,1.02-2.81,1.57-.33,.28-.37,.78-.09,1.11,.28,.33,.78,.37,1.11,.09,0,0,0,0,.01,0,.5-.43,1.26-.87,2.15-1.22h0Z"/>
    <path class="cls-11" d="M86.04,136.17c-15.46,9.54-49.7,39.52-44.77,62.17,7.13,32.73,40.95,67.26,40.95,67.26,1.3,11.32,10.97,13.92,13,14.65,1.75,.63-5.11-15.28-4.37-16.56,2.38-4.1,7.07,2.1,8.16-1.9,.69-2.53-5.31-7.16-10.64-6.57,0,0-24.09-45.08-17.23-65.33,6.86-20.24,55.05-18.73,58.36-56.13,.88-9.99-3.07-22.54-43.45,2.4h0Z"/>
    <g class="cls-16">
      <path class="cls-13" d="M103.44,230.78c18.34-22.38,47.76-39.97,51.03-71.28,2.3-21.97-12.42-37.87-31.9-45.56-30.34-11.97-69.29-9.17-97.04,8.15-39.85,24.87-42.87,78.89-16.93,114.91,8.04,11.16,18.65,21.65,32.11,25.78,10.05,3.08,28.73,3.89,35.17-7.05,2.13-3.61-.2-8.33,2.45-11.62,2.01-2.5,5.5-2.3,7.98-4.05,4.08-2.86,3.49-10.04,1.98-14.16l15.15,4.87Z"/>
    </g>
    <g>
      <path class="cls-14" d="M354.64,108.93s-19.13-5.63-32.63-20.2c-15.17,13.64-34.92,20.2-34.92,20.2v30.76c0,12.21,6.31,23.56,16.68,30.02,.55,.35,1.11,.69,1.66,1.03,9.21,5.73,20.86,5.8,30.14,.17,11.85-7.19,19.08-20.04,19.08-33.89v-28.09Z"/>
      <path class="cls-3" d="M345.69,115.59s-14.06-4.16-23.99-14.92c-11.15,10.08-25.67,14.92-25.67,14.92v22.77c0,9,4.64,17.37,12.27,22.14,.4,.25,.8,.5,1.2,.75,6.78,4.24,15.37,4.29,22.19,.12h0c8.7-5.31,14.01-14.76,14.01-24.95v-20.83Z"/>
      <path class="cls-6" d="M306.92,139.81l9.29,12.45c.78,1.04,1.96,1.62,3.19,1.57,1.26-.06,2.42-.73,3.09-1.81l17.36-26.87c1.23-1.91,.79-4.53-.99-5.86s-4.22-.85-5.45,1.06l-14.36,22.23-6.01-8.05c-1.35-1.81-3.82-2.1-5.5-.65-1.69,1.45-1.96,4.1-.61,5.92h0Z"/>
    </g>
    <path class="cls-11" d="M283.76,139.24c.56-3.18,2.37-6.43,3.44-6.81,7.14-2.48,10.91,4.65,3.56,6.86-3.56,1.07-7.12,10.26-7.12,10.26,0,0-.3-7.87,.12-10.31Z"/>
    <path class="cls-9" d="M151.87,81.35c-9.46,0-16.35,8.68-15.01,20.47,.96,8.35,11.51,17.34,20.16,18.18,7.13,.7,9.92-6.54,9.92-18.4s-5.62-20.25-15.08-20.25Z"/>
    <path class="cls-10" d="M155.49,112.04c.18-.82,.88-1.56,1.45-2.14,.5-.51,1.03-1.01,1.65-1.38,.37-.23,.77-.41,1.19-.52,2.45-.59,3.62,1.49,5.52,2.5,.73,.39,1.52,.46,2.34,.49,2.32,3.54-1.8,7.42-4.82,8.68-1.51,.63-5.44,5.63-10.24-.12-1.09-1.3-6.98-.91-5.13-7.51,.48-1.73-.22-3.93-.34-5.71-.19-2.61,.02-5.64-2.53-7.24-.4-.25-.83-.46-1.27-.62-.31-.12-.67-.36-.97-.22-2.21,1.03,1.42,5.07-4.02,6.73,.35,1.81-1.38,3.07-2.97,3.31-2.49,.38-5.16-.7-6.8-2.59-1.52-1.75-3.36-4.46-3.68-6.72-.38-2.76-.25-8.75,2.32-12.3,2-2.77,4.95-4.92,8.48-4.7-.04-.7,.43-1.4,.79-1.96,.85-1.31,1.92-2.47,3.16-3.41,2-1.5,4.47-2.61,6.98-2.8,3.36-.25,6.96,1.61,8.42,4.71,.64-.68,1.6-.9,2.49-1.08,2.17-.43,4.2-.16,6.13,.96,4.17,2.42,5.61,7.12,3.85,11.48-.63-.2-1.36-.21-2.02-.3-1.57-.22,3.83,3.12-7.14,5.05-2.86,.5-7.09-1.68-9.15,1-1.35,1.75-.41,3.84-.13,5.77,.25,1.72,.12,3.48,.44,5.19,.46,2.43,2.32,5.42,4.94,5.96l1.08-.51Z"/>
  </g>
</svg>